<?xml version="1.0" encoding="utf-8" standalone="no"?>
<!DOCTYPE svg PUBLIC "-//W3C//DTD SVG 1.1//EN"
  "http://www.w3.org/Graphics/SVG/1.1/DTD/svg11.dtd">
<svg xmlns:xlink="http://www.w3.org/1999/xlink" width="599.04pt" height="345.6pt" viewBox="0 0 599.04 345.6" xmlns="http://www.w3.org/2000/svg" version="1.1">
 <metadata>
  <rdf:RDF xmlns:dc="http://purl.org/dc/elements/1.1/" xmlns:cc="http://creativecommons.org/ns#" xmlns:rdf="http://www.w3.org/1999/02/22-rdf-syntax-ns#">
   <cc:Work>
    <dc:type rdf:resource="http://purl.org/dc/dcmitype/StillImage"/>
    <dc:date>2024-08-28T16:28:04.276725</dc:date>
    <dc:format>image/svg+xml</dc:format>
    <dc:creator>
     <cc:Agent>
      <dc:title>Matplotlib v3.8.3, https://matplotlib.org/</dc:title>
     </cc:Agent>
    </dc:creator>
   </cc:Work>
  </rdf:RDF>
 </metadata>
 <defs>
  <style type="text/css">*{stroke-linejoin: round; stroke-linecap: butt}</style>
 </defs>
 <g id="figure_1">
  <g id="patch_1">
   <path d="M 0 345.6 
L 599.04 345.6 
L 599.04 0 
L 0 0 
z
" style="fill: #ffffff"/>
  </g>
  <g id="axes_1">
   <g id="patch_2">
    <path d="M 74.88 307.584 
L 539.136 307.584 
L 539.136 41.472 
L 74.88 41.472 
z
" style="fill: #ffffff"/>
   </g>
   <g id="matplotlib.axis_1">
    <g id="xtick_1">
     <g id="line2d_1">
      <defs>
       <path id="m1f3c1e74bd" d="M 0 0 
L 0 3.5 
" style="stroke: #000000; stroke-width: 0.8"/>
      </defs>
      <g>
       <use xlink:href="#m1f3c1e74bd" x="95.982545" y="307.584" style="stroke: #000000; stroke-width: 0.8"/>
      </g>
     </g>
     <g id="text_1">
      <!-- 0 -->
      <g transform="translate(92.801295 322.182437) scale(0.1 -0.1)">
       <defs>
        <path id="DejaVuSans-30" d="M 2034 4250 
Q 1547 4250 1301 3770 
Q 1056 3291 1056 2328 
Q 1056 1369 1301 889 
Q 1547 409 2034 409 
Q 2525 409 2770 889 
Q 3016 1369 3016 2328 
Q 3016 3291 2770 3770 
Q 2525 4250 2034 4250 
z
M 2034 4750 
Q 2819 4750 3233 4129 
Q 3647 3509 3647 2328 
Q 3647 1150 3233 529 
Q 2819 -91 2034 -91 
Q 1250 -91 836 529 
Q 422 1150 422 2328 
Q 422 3509 836 4129 
Q 1250 4750 2034 4750 
z
" transform="scale(0.015625)"/>
       </defs>
       <use xlink:href="#DejaVuSans-30"/>
      </g>
     </g>
    </g>
    <g id="xtick_2">
     <g id="line2d_2">
      <g>
       <use xlink:href="#m1f3c1e74bd" x="172.730703" y="307.584" style="stroke: #000000; stroke-width: 0.8"/>
      </g>
     </g>
     <g id="text_2">
      <!-- 1 -->
      <g transform="translate(169.549453 322.182437) scale(0.1 -0.1)">
       <defs>
        <path id="DejaVuSans-31" d="M 794 531 
L 1825 531 
L 1825 4091 
L 703 3866 
L 703 4441 
L 1819 4666 
L 2450 4666 
L 2450 531 
L 3481 531 
L 3481 0 
L 794 0 
L 794 531 
z
" transform="scale(0.015625)"/>
       </defs>
       <use xlink:href="#DejaVuSans-31"/>
      </g>
     </g>
    </g>
    <g id="xtick_3">
     <g id="line2d_3">
      <g>
       <use xlink:href="#m1f3c1e74bd" x="249.47886" y="307.584" style="stroke: #000000; stroke-width: 0.8"/>
      </g>
     </g>
     <g id="text_3">
      <!-- 2 -->
      <g transform="translate(246.29761 322.182437) scale(0.1 -0.1)">
       <defs>
        <path id="DejaVuSans-32" d="M 1228 531 
L 3431 531 
L 3431 0 
L 469 0 
L 469 531 
Q 828 903 1448 1529 
Q 2069 2156 2228 2338 
Q 2531 2678 2651 2914 
Q 2772 3150 2772 3378 
Q 2772 3750 2511 3984 
Q 2250 4219 1831 4219 
Q 1534 4219 1204 4116 
Q 875 4013 500 3803 
L 500 4441 
Q 881 4594 1212 4672 
Q 1544 4750 1819 4750 
Q 2544 4750 2975 4387 
Q 3406 4025 3406 3419 
Q 3406 3131 3298 2873 
Q 3191 2616 2906 2266 
Q 2828 2175 2409 1742 
Q 1991 1309 1228 531 
z
" transform="scale(0.015625)"/>
       </defs>
       <use xlink:href="#DejaVuSans-32"/>
      </g>
     </g>
    </g>
    <g id="xtick_4">
     <g id="line2d_4">
      <g>
       <use xlink:href="#m1f3c1e74bd" x="326.227018" y="307.584" style="stroke: #000000; stroke-width: 0.8"/>
      </g>
     </g>
     <g id="text_4">
      <!-- 3 -->
      <g transform="translate(323.045768 322.182437) scale(0.1 -0.1)">
       <defs>
        <path id="DejaVuSans-33" d="M 2597 2516 
Q 3050 2419 3304 2112 
Q 3559 1806 3559 1356 
Q 3559 666 3084 287 
Q 2609 -91 1734 -91 
Q 1441 -91 1130 -33 
Q 819 25 488 141 
L 488 750 
Q 750 597 1062 519 
Q 1375 441 1716 441 
Q 2309 441 2620 675 
Q 2931 909 2931 1356 
Q 2931 1769 2642 2001 
Q 2353 2234 1838 2234 
L 1294 2234 
L 1294 2753 
L 1863 2753 
Q 2328 2753 2575 2939 
Q 2822 3125 2822 3475 
Q 2822 3834 2567 4026 
Q 2313 4219 1838 4219 
Q 1578 4219 1281 4162 
Q 984 4106 628 3988 
L 628 4550 
Q 988 4650 1302 4700 
Q 1616 4750 1894 4750 
Q 2613 4750 3031 4423 
Q 3450 4097 3450 3541 
Q 3450 3153 3228 2886 
Q 3006 2619 2597 2516 
z
" transform="scale(0.015625)"/>
       </defs>
       <use xlink:href="#DejaVuSans-33"/>
      </g>
     </g>
    </g>
    <g id="xtick_5">
     <g id="line2d_5">
      <g>
       <use xlink:href="#m1f3c1e74bd" x="402.975175" y="307.584" style="stroke: #000000; stroke-width: 0.8"/>
      </g>
     </g>
     <g id="text_5">
      <!-- 4 -->
      <g transform="translate(399.793925 322.182437) scale(0.1 -0.1)">
       <defs>
        <path id="DejaVuSans-34" d="M 2419 4116 
L 825 1625 
L 2419 1625 
L 2419 4116 
z
M 2253 4666 
L 3047 4666 
L 3047 1625 
L 3713 1625 
L 3713 1100 
L 3047 1100 
L 3047 0 
L 2419 0 
L 2419 1100 
L 313 1100 
L 313 1709 
L 2253 4666 
z
" transform="scale(0.015625)"/>
       </defs>
       <use xlink:href="#DejaVuSans-34"/>
      </g>
     </g>
    </g>
    <g id="xtick_6">
     <g id="line2d_6">
      <g>
       <use xlink:href="#m1f3c1e74bd" x="479.723333" y="307.584" style="stroke: #000000; stroke-width: 0.8"/>
      </g>
     </g>
     <g id="text_6">
      <!-- 5 -->
      <g transform="translate(476.542083 322.182437) scale(0.1 -0.1)">
       <defs>
        <path id="DejaVuSans-35" d="M 691 4666 
L 3169 4666 
L 3169 4134 
L 1269 4134 
L 1269 2991 
Q 1406 3038 1543 3061 
Q 1681 3084 1819 3084 
Q 2600 3084 3056 2656 
Q 3513 2228 3513 1497 
Q 3513 744 3044 326 
Q 2575 -91 1722 -91 
Q 1428 -91 1123 -41 
Q 819 9 494 109 
L 494 744 
Q 775 591 1075 516 
Q 1375 441 1709 441 
Q 2250 441 2565 725 
Q 2881 1009 2881 1497 
Q 2881 1984 2565 2268 
Q 2250 2553 1709 2553 
Q 1456 2553 1204 2497 
Q 953 2441 691 2322 
L 691 4666 
z
" transform="scale(0.015625)"/>
       </defs>
       <use xlink:href="#DejaVuSans-35"/>
      </g>
     </g>
    </g>
    <g id="text_7">
     <!-- time (ms) -->
     <g transform="translate(282.746281 335.860562) scale(0.1 -0.1)">
      <defs>
       <path id="DejaVuSans-74" d="M 1172 4494 
L 1172 3500 
L 2356 3500 
L 2356 3053 
L 1172 3053 
L 1172 1153 
Q 1172 725 1289 603 
Q 1406 481 1766 481 
L 2356 481 
L 2356 0 
L 1766 0 
Q 1100 0 847 248 
Q 594 497 594 1153 
L 594 3053 
L 172 3053 
L 172 3500 
L 594 3500 
L 594 4494 
L 1172 4494 
z
" transform="scale(0.015625)"/>
       <path id="DejaVuSans-69" d="M 603 3500 
L 1178 3500 
L 1178 0 
L 603 0 
L 603 3500 
z
M 603 4863 
L 1178 4863 
L 1178 4134 
L 603 4134 
L 603 4863 
z
" transform="scale(0.015625)"/>
       <path id="DejaVuSans-6d" d="M 3328 2828 
Q 3544 3216 3844 3400 
Q 4144 3584 4550 3584 
Q 5097 3584 5394 3201 
Q 5691 2819 5691 2113 
L 5691 0 
L 5113 0 
L 5113 2094 
Q 5113 2597 4934 2840 
Q 4756 3084 4391 3084 
Q 3944 3084 3684 2787 
Q 3425 2491 3425 1978 
L 3425 0 
L 2847 0 
L 2847 2094 
Q 2847 2600 2669 2842 
Q 2491 3084 2119 3084 
Q 1678 3084 1418 2786 
Q 1159 2488 1159 1978 
L 1159 0 
L 581 0 
L 581 3500 
L 1159 3500 
L 1159 2956 
Q 1356 3278 1631 3431 
Q 1906 3584 2284 3584 
Q 2666 3584 2933 3390 
Q 3200 3197 3328 2828 
z
" transform="scale(0.015625)"/>
       <path id="DejaVuSans-65" d="M 3597 1894 
L 3597 1613 
L 953 1613 
Q 991 1019 1311 708 
Q 1631 397 2203 397 
Q 2534 397 2845 478 
Q 3156 559 3463 722 
L 3463 178 
Q 3153 47 2828 -22 
Q 2503 -91 2169 -91 
Q 1331 -91 842 396 
Q 353 884 353 1716 
Q 353 2575 817 3079 
Q 1281 3584 2069 3584 
Q 2775 3584 3186 3129 
Q 3597 2675 3597 1894 
z
M 3022 2063 
Q 3016 2534 2758 2815 
Q 2500 3097 2075 3097 
Q 1594 3097 1305 2825 
Q 1016 2553 972 2059 
L 3022 2063 
z
" transform="scale(0.015625)"/>
       <path id="DejaVuSans-20" transform="scale(0.015625)"/>
       <path id="DejaVuSans-28" d="M 1984 4856 
Q 1566 4138 1362 3434 
Q 1159 2731 1159 2009 
Q 1159 1288 1364 580 
Q 1569 -128 1984 -844 
L 1484 -844 
Q 1016 -109 783 600 
Q 550 1309 550 2009 
Q 550 2706 781 3412 
Q 1013 4119 1484 4856 
L 1984 4856 
z
" transform="scale(0.015625)"/>
       <path id="DejaVuSans-73" d="M 2834 3397 
L 2834 2853 
Q 2591 2978 2328 3040 
Q 2066 3103 1784 3103 
Q 1356 3103 1142 2972 
Q 928 2841 928 2578 
Q 928 2378 1081 2264 
Q 1234 2150 1697 2047 
L 1894 2003 
Q 2506 1872 2764 1633 
Q 3022 1394 3022 966 
Q 3022 478 2636 193 
Q 2250 -91 1575 -91 
Q 1294 -91 989 -36 
Q 684 19 347 128 
L 347 722 
Q 666 556 975 473 
Q 1284 391 1588 391 
Q 1994 391 2212 530 
Q 2431 669 2431 922 
Q 2431 1156 2273 1281 
Q 2116 1406 1581 1522 
L 1381 1569 
Q 847 1681 609 1914 
Q 372 2147 372 2553 
Q 372 3047 722 3315 
Q 1072 3584 1716 3584 
Q 2034 3584 2315 3537 
Q 2597 3491 2834 3397 
z
" transform="scale(0.015625)"/>
       <path id="DejaVuSans-29" d="M 513 4856 
L 1013 4856 
Q 1481 4119 1714 3412 
Q 1947 2706 1947 2009 
Q 1947 1309 1714 600 
Q 1481 -109 1013 -844 
L 513 -844 
Q 928 -128 1133 580 
Q 1338 1288 1338 2009 
Q 1338 2731 1133 3434 
Q 928 4138 513 4856 
z
" transform="scale(0.015625)"/>
      </defs>
      <use xlink:href="#DejaVuSans-74"/>
      <use xlink:href="#DejaVuSans-69" x="39.208984"/>
      <use xlink:href="#DejaVuSans-6d" x="66.992188"/>
      <use xlink:href="#DejaVuSans-65" x="164.404297"/>
      <use xlink:href="#DejaVuSans-20" x="225.927734"/>
      <use xlink:href="#DejaVuSans-28" x="257.714844"/>
      <use xlink:href="#DejaVuSans-6d" x="296.728516"/>
      <use xlink:href="#DejaVuSans-73" x="394.140625"/>
      <use xlink:href="#DejaVuSans-29" x="446.240234"/>
     </g>
    </g>
   </g>
   <g id="matplotlib.axis_2">
    <g id="ytick_1">
     <g id="line2d_7">
      <defs>
       <path id="m8bcef990b1" d="M 0 0 
L -3.5 0 
" style="stroke: #000000; stroke-width: 0.8"/>
      </defs>
      <g>
       <use xlink:href="#m8bcef990b1" x="74.88" y="289.15676" style="stroke: #000000; stroke-width: 0.8"/>
      </g>
     </g>
     <g id="text_8">
      <!-- 1200 -->
      <g transform="translate(42.43 292.955979) scale(0.1 -0.1)">
       <use xlink:href="#DejaVuSans-31"/>
       <use xlink:href="#DejaVuSans-32" x="63.623047"/>
       <use xlink:href="#DejaVuSans-30" x="127.246094"/>
       <use xlink:href="#DejaVuSans-30" x="190.869141"/>
      </g>
     </g>
    </g>
    <g id="ytick_2">
     <g id="line2d_8">
      <g>
       <use xlink:href="#m8bcef990b1" x="74.88" y="255.834446" style="stroke: #000000; stroke-width: 0.8"/>
      </g>
     </g>
     <g id="text_9">
      <!-- 1400 -->
      <g transform="translate(42.43 259.633665) scale(0.1 -0.1)">
       <use xlink:href="#DejaVuSans-31"/>
       <use xlink:href="#DejaVuSans-34" x="63.623047"/>
       <use xlink:href="#DejaVuSans-30" x="127.246094"/>
       <use xlink:href="#DejaVuSans-30" x="190.869141"/>
      </g>
     </g>
    </g>
    <g id="ytick_3">
     <g id="line2d_9">
      <g>
       <use xlink:href="#m8bcef990b1" x="74.88" y="222.512132" style="stroke: #000000; stroke-width: 0.8"/>
      </g>
     </g>
     <g id="text_10">
      <!-- 1600 -->
      <g transform="translate(42.43 226.311351) scale(0.1 -0.1)">
       <defs>
        <path id="DejaVuSans-36" d="M 2113 2584 
Q 1688 2584 1439 2293 
Q 1191 2003 1191 1497 
Q 1191 994 1439 701 
Q 1688 409 2113 409 
Q 2538 409 2786 701 
Q 3034 994 3034 1497 
Q 3034 2003 2786 2293 
Q 2538 2584 2113 2584 
z
M 3366 4563 
L 3366 3988 
Q 3128 4100 2886 4159 
Q 2644 4219 2406 4219 
Q 1781 4219 1451 3797 
Q 1122 3375 1075 2522 
Q 1259 2794 1537 2939 
Q 1816 3084 2150 3084 
Q 2853 3084 3261 2657 
Q 3669 2231 3669 1497 
Q 3669 778 3244 343 
Q 2819 -91 2113 -91 
Q 1303 -91 875 529 
Q 447 1150 447 2328 
Q 447 3434 972 4092 
Q 1497 4750 2381 4750 
Q 2619 4750 2861 4703 
Q 3103 4656 3366 4563 
z
" transform="scale(0.015625)"/>
       </defs>
       <use xlink:href="#DejaVuSans-31"/>
       <use xlink:href="#DejaVuSans-36" x="63.623047"/>
       <use xlink:href="#DejaVuSans-30" x="127.246094"/>
       <use xlink:href="#DejaVuSans-30" x="190.869141"/>
      </g>
     </g>
    </g>
    <g id="ytick_4">
     <g id="line2d_10">
      <g>
       <use xlink:href="#m8bcef990b1" x="74.88" y="189.189818" style="stroke: #000000; stroke-width: 0.8"/>
      </g>
     </g>
     <g id="text_11">
      <!-- 1800 -->
      <g transform="translate(42.43 192.989037) scale(0.1 -0.1)">
       <defs>
        <path id="DejaVuSans-38" d="M 2034 2216 
Q 1584 2216 1326 1975 
Q 1069 1734 1069 1313 
Q 1069 891 1326 650 
Q 1584 409 2034 409 
Q 2484 409 2743 651 
Q 3003 894 3003 1313 
Q 3003 1734 2745 1975 
Q 2488 2216 2034 2216 
z
M 1403 2484 
Q 997 2584 770 2862 
Q 544 3141 544 3541 
Q 544 4100 942 4425 
Q 1341 4750 2034 4750 
Q 2731 4750 3128 4425 
Q 3525 4100 3525 3541 
Q 3525 3141 3298 2862 
Q 3072 2584 2669 2484 
Q 3125 2378 3379 2068 
Q 3634 1759 3634 1313 
Q 3634 634 3220 271 
Q 2806 -91 2034 -91 
Q 1263 -91 848 271 
Q 434 634 434 1313 
Q 434 1759 690 2068 
Q 947 2378 1403 2484 
z
M 1172 3481 
Q 1172 3119 1398 2916 
Q 1625 2713 2034 2713 
Q 2441 2713 2670 2916 
Q 2900 3119 2900 3481 
Q 2900 3844 2670 4047 
Q 2441 4250 2034 4250 
Q 1625 4250 1398 4047 
Q 1172 3844 1172 3481 
z
" transform="scale(0.015625)"/>
       </defs>
       <use xlink:href="#DejaVuSans-31"/>
       <use xlink:href="#DejaVuSans-38" x="63.623047"/>
       <use xlink:href="#DejaVuSans-30" x="127.246094"/>
       <use xlink:href="#DejaVuSans-30" x="190.869141"/>
      </g>
     </g>
    </g>
    <g id="ytick_5">
     <g id="line2d_11">
      <g>
       <use xlink:href="#m8bcef990b1" x="74.88" y="155.867504" style="stroke: #000000; stroke-width: 0.8"/>
      </g>
     </g>
     <g id="text_12">
      <!-- 2000 -->
      <g transform="translate(42.43 159.666723) scale(0.1 -0.1)">
       <use xlink:href="#DejaVuSans-32"/>
       <use xlink:href="#DejaVuSans-30" x="63.623047"/>
       <use xlink:href="#DejaVuSans-30" x="127.246094"/>
       <use xlink:href="#DejaVuSans-30" x="190.869141"/>
      </g>
     </g>
    </g>
    <g id="ytick_6">
     <g id="line2d_12">
      <g>
       <use xlink:href="#m8bcef990b1" x="74.88" y="122.54519" style="stroke: #000000; stroke-width: 0.8"/>
      </g>
     </g>
     <g id="text_13">
      <!-- 2200 -->
      <g transform="translate(42.43 126.344409) scale(0.1 -0.1)">
       <use xlink:href="#DejaVuSans-32"/>
       <use xlink:href="#DejaVuSans-32" x="63.623047"/>
       <use xlink:href="#DejaVuSans-30" x="127.246094"/>
       <use xlink:href="#DejaVuSans-30" x="190.869141"/>
      </g>
     </g>
    </g>
    <g id="ytick_7">
     <g id="line2d_13">
      <g>
       <use xlink:href="#m8bcef990b1" x="74.88" y="89.222876" style="stroke: #000000; stroke-width: 0.8"/>
      </g>
     </g>
     <g id="text_14">
      <!-- 2400 -->
      <g transform="translate(42.43 93.022095) scale(0.1 -0.1)">
       <use xlink:href="#DejaVuSans-32"/>
       <use xlink:href="#DejaVuSans-34" x="63.623047"/>
       <use xlink:href="#DejaVuSans-30" x="127.246094"/>
       <use xlink:href="#DejaVuSans-30" x="190.869141"/>
      </g>
     </g>
    </g>
    <g id="ytick_8">
     <g id="line2d_14">
      <g>
       <use xlink:href="#m8bcef990b1" x="74.88" y="55.900562" style="stroke: #000000; stroke-width: 0.8"/>
      </g>
     </g>
     <g id="text_15">
      <!-- 2600 -->
      <g transform="translate(42.43 59.699781) scale(0.1 -0.1)">
       <use xlink:href="#DejaVuSans-32"/>
       <use xlink:href="#DejaVuSans-36" x="63.623047"/>
       <use xlink:href="#DejaVuSans-30" x="127.246094"/>
       <use xlink:href="#DejaVuSans-30" x="190.869141"/>
      </g>
     </g>
    </g>
    <g id="text_16">
     <!-- Signal (12-bit ADC value) -->
     <g transform="translate(36.350312 237.6655) rotate(-90) scale(0.1 -0.1)">
      <defs>
       <path id="DejaVuSans-53" d="M 3425 4513 
L 3425 3897 
Q 3066 4069 2747 4153 
Q 2428 4238 2131 4238 
Q 1616 4238 1336 4038 
Q 1056 3838 1056 3469 
Q 1056 3159 1242 3001 
Q 1428 2844 1947 2747 
L 2328 2669 
Q 3034 2534 3370 2195 
Q 3706 1856 3706 1288 
Q 3706 609 3251 259 
Q 2797 -91 1919 -91 
Q 1588 -91 1214 -16 
Q 841 59 441 206 
L 441 856 
Q 825 641 1194 531 
Q 1563 422 1919 422 
Q 2459 422 2753 634 
Q 3047 847 3047 1241 
Q 3047 1584 2836 1778 
Q 2625 1972 2144 2069 
L 1759 2144 
Q 1053 2284 737 2584 
Q 422 2884 422 3419 
Q 422 4038 858 4394 
Q 1294 4750 2059 4750 
Q 2388 4750 2728 4690 
Q 3069 4631 3425 4513 
z
" transform="scale(0.015625)"/>
       <path id="DejaVuSans-67" d="M 2906 1791 
Q 2906 2416 2648 2759 
Q 2391 3103 1925 3103 
Q 1463 3103 1205 2759 
Q 947 2416 947 1791 
Q 947 1169 1205 825 
Q 1463 481 1925 481 
Q 2391 481 2648 825 
Q 2906 1169 2906 1791 
z
M 3481 434 
Q 3481 -459 3084 -895 
Q 2688 -1331 1869 -1331 
Q 1566 -1331 1297 -1286 
Q 1028 -1241 775 -1147 
L 775 -588 
Q 1028 -725 1275 -790 
Q 1522 -856 1778 -856 
Q 2344 -856 2625 -561 
Q 2906 -266 2906 331 
L 2906 616 
Q 2728 306 2450 153 
Q 2172 0 1784 0 
Q 1141 0 747 490 
Q 353 981 353 1791 
Q 353 2603 747 3093 
Q 1141 3584 1784 3584 
Q 2172 3584 2450 3431 
Q 2728 3278 2906 2969 
L 2906 3500 
L 3481 3500 
L 3481 434 
z
" transform="scale(0.015625)"/>
       <path id="DejaVuSans-6e" d="M 3513 2113 
L 3513 0 
L 2938 0 
L 2938 2094 
Q 2938 2591 2744 2837 
Q 2550 3084 2163 3084 
Q 1697 3084 1428 2787 
Q 1159 2491 1159 1978 
L 1159 0 
L 581 0 
L 581 3500 
L 1159 3500 
L 1159 2956 
Q 1366 3272 1645 3428 
Q 1925 3584 2291 3584 
Q 2894 3584 3203 3211 
Q 3513 2838 3513 2113 
z
" transform="scale(0.015625)"/>
       <path id="DejaVuSans-61" d="M 2194 1759 
Q 1497 1759 1228 1600 
Q 959 1441 959 1056 
Q 959 750 1161 570 
Q 1363 391 1709 391 
Q 2188 391 2477 730 
Q 2766 1069 2766 1631 
L 2766 1759 
L 2194 1759 
z
M 3341 1997 
L 3341 0 
L 2766 0 
L 2766 531 
Q 2569 213 2275 61 
Q 1981 -91 1556 -91 
Q 1019 -91 701 211 
Q 384 513 384 1019 
Q 384 1609 779 1909 
Q 1175 2209 1959 2209 
L 2766 2209 
L 2766 2266 
Q 2766 2663 2505 2880 
Q 2244 3097 1772 3097 
Q 1472 3097 1187 3025 
Q 903 2953 641 2809 
L 641 3341 
Q 956 3463 1253 3523 
Q 1550 3584 1831 3584 
Q 2591 3584 2966 3190 
Q 3341 2797 3341 1997 
z
" transform="scale(0.015625)"/>
       <path id="DejaVuSans-6c" d="M 603 4863 
L 1178 4863 
L 1178 0 
L 603 0 
L 603 4863 
z
" transform="scale(0.015625)"/>
       <path id="DejaVuSans-2d" d="M 313 2009 
L 1997 2009 
L 1997 1497 
L 313 1497 
L 313 2009 
z
" transform="scale(0.015625)"/>
       <path id="DejaVuSans-62" d="M 3116 1747 
Q 3116 2381 2855 2742 
Q 2594 3103 2138 3103 
Q 1681 3103 1420 2742 
Q 1159 2381 1159 1747 
Q 1159 1113 1420 752 
Q 1681 391 2138 391 
Q 2594 391 2855 752 
Q 3116 1113 3116 1747 
z
M 1159 2969 
Q 1341 3281 1617 3432 
Q 1894 3584 2278 3584 
Q 2916 3584 3314 3078 
Q 3713 2572 3713 1747 
Q 3713 922 3314 415 
Q 2916 -91 2278 -91 
Q 1894 -91 1617 61 
Q 1341 213 1159 525 
L 1159 0 
L 581 0 
L 581 4863 
L 1159 4863 
L 1159 2969 
z
" transform="scale(0.015625)"/>
       <path id="DejaVuSans-41" d="M 2188 4044 
L 1331 1722 
L 3047 1722 
L 2188 4044 
z
M 1831 4666 
L 2547 4666 
L 4325 0 
L 3669 0 
L 3244 1197 
L 1141 1197 
L 716 0 
L 50 0 
L 1831 4666 
z
" transform="scale(0.015625)"/>
       <path id="DejaVuSans-44" d="M 1259 4147 
L 1259 519 
L 2022 519 
Q 2988 519 3436 956 
Q 3884 1394 3884 2338 
Q 3884 3275 3436 3711 
Q 2988 4147 2022 4147 
L 1259 4147 
z
M 628 4666 
L 1925 4666 
Q 3281 4666 3915 4102 
Q 4550 3538 4550 2338 
Q 4550 1131 3912 565 
Q 3275 0 1925 0 
L 628 0 
L 628 4666 
z
" transform="scale(0.015625)"/>
       <path id="DejaVuSans-43" d="M 4122 4306 
L 4122 3641 
Q 3803 3938 3442 4084 
Q 3081 4231 2675 4231 
Q 1875 4231 1450 3742 
Q 1025 3253 1025 2328 
Q 1025 1406 1450 917 
Q 1875 428 2675 428 
Q 3081 428 3442 575 
Q 3803 722 4122 1019 
L 4122 359 
Q 3791 134 3420 21 
Q 3050 -91 2638 -91 
Q 1578 -91 968 557 
Q 359 1206 359 2328 
Q 359 3453 968 4101 
Q 1578 4750 2638 4750 
Q 3056 4750 3426 4639 
Q 3797 4528 4122 4306 
z
" transform="scale(0.015625)"/>
       <path id="DejaVuSans-76" d="M 191 3500 
L 800 3500 
L 1894 563 
L 2988 3500 
L 3597 3500 
L 2284 0 
L 1503 0 
L 191 3500 
z
" transform="scale(0.015625)"/>
       <path id="DejaVuSans-75" d="M 544 1381 
L 544 3500 
L 1119 3500 
L 1119 1403 
Q 1119 906 1312 657 
Q 1506 409 1894 409 
Q 2359 409 2629 706 
Q 2900 1003 2900 1516 
L 2900 3500 
L 3475 3500 
L 3475 0 
L 2900 0 
L 2900 538 
Q 2691 219 2414 64 
Q 2138 -91 1772 -91 
Q 1169 -91 856 284 
Q 544 659 544 1381 
z
M 1991 3584 
L 1991 3584 
z
" transform="scale(0.015625)"/>
      </defs>
      <use xlink:href="#DejaVuSans-53"/>
      <use xlink:href="#DejaVuSans-69" x="63.476562"/>
      <use xlink:href="#DejaVuSans-67" x="91.259766"/>
      <use xlink:href="#DejaVuSans-6e" x="154.736328"/>
      <use xlink:href="#DejaVuSans-61" x="218.115234"/>
      <use xlink:href="#DejaVuSans-6c" x="279.394531"/>
      <use xlink:href="#DejaVuSans-20" x="307.177734"/>
      <use xlink:href="#DejaVuSans-28" x="338.964844"/>
      <use xlink:href="#DejaVuSans-31" x="377.978516"/>
      <use xlink:href="#DejaVuSans-32" x="441.601562"/>
      <use xlink:href="#DejaVuSans-2d" x="505.224609"/>
      <use xlink:href="#DejaVuSans-62" x="541.308594"/>
      <use xlink:href="#DejaVuSans-69" x="604.785156"/>
      <use xlink:href="#DejaVuSans-74" x="632.568359"/>
      <use xlink:href="#DejaVuSans-20" x="671.777344"/>
      <use xlink:href="#DejaVuSans-41" x="703.564453"/>
      <use xlink:href="#DejaVuSans-44" x="771.972656"/>
      <use xlink:href="#DejaVuSans-43" x="848.974609"/>
      <use xlink:href="#DejaVuSans-20" x="918.798828"/>
      <use xlink:href="#DejaVuSans-76" x="950.585938"/>
      <use xlink:href="#DejaVuSans-61" x="1009.765625"/>
      <use xlink:href="#DejaVuSans-6c" x="1071.044922"/>
      <use xlink:href="#DejaVuSans-75" x="1098.828125"/>
      <use xlink:href="#DejaVuSans-65" x="1162.207031"/>
      <use xlink:href="#DejaVuSans-29" x="1223.730469"/>
     </g>
    </g>
   </g>
   <g id="line2d_15">
    <path d="M 95.982545 165.197752 
L 96.302329 182.858579 
L 96.366286 180.85924 
L 96.68607 162.365355 
L 96.813984 170.529322 
L 97.005854 184.191471 
L 97.069811 183.358413 
L 97.389595 162.198744 
L 97.453552 163.86486 
L 97.773336 182.192132 
L 97.965206 170.695934 
L 98.09312 165.197752 
L 98.157077 166.03081 
L 98.412904 178.526678 
L 98.476861 178.360066 
L 98.732688 169.029818 
L 98.796645 169.19643 
L 99.052472 177.027174 
L 99.116429 176.360727 
L 99.372256 166.697256 
L 99.436213 167.863537 
L 99.755997 181.359074 
L 99.88391 173.361719 
L 100.075781 161.698909 
L 100.139737 163.365025 
L 100.459521 185.857587 
L 100.587435 177.193785 
L 100.779305 159.366347 
L 100.843262 159.532959 
L 101.035132 177.527008 
L 101.163046 186.857256 
L 101.227003 186.024198 
L 101.546787 159.69957 
L 101.610744 161.199074 
L 101.930528 184.691306 
L 101.994484 183.858248 
L 102.314268 163.198413 
L 102.378225 164.364694 
L 102.698009 179.692959 
L 102.761966 179.359736 
L 103.209664 168.030149 
L 103.337577 169.696264 
L 103.721318 179.026512 
L 103.849232 174.361388 
L 104.105059 163.86486 
L 104.232972 169.19643 
L 104.4888 184.191471 
L 104.616713 178.026843 
L 104.87254 160.199405 
L 105.000454 167.363702 
L 105.256281 186.19081 
L 105.384195 178.693289 
L 105.640022 160.366017 
L 105.767936 168.030149 
L 106.023763 185.024529 
L 106.151676 177.027174 
L 106.343547 162.365355 
L 106.407504 162.531967 
L 106.727287 182.525355 
L 106.791244 181.025851 
L 107.111028 166.03081 
L 107.430812 178.193455 
L 107.494769 177.527008 
L 107.814553 168.529983 
L 108.006423 174.528 
L 108.134337 176.69395 
L 108.262251 174.361388 
L 108.518078 170.029488 
L 108.645991 171.862215 
L 108.901819 176.194116 
L 109.029732 174.528 
L 109.285559 169.696264 
L 109.349516 170.029488 
L 109.541387 174.361388 
L 109.6693 177.027174 
L 109.733257 176.69395 
L 109.861171 173.861554 
L 110.053041 168.863207 
L 110.116998 168.696595 
L 110.436782 176.860562 
L 110.500739 176.194116 
L 110.820523 170.362711 
L 110.884479 170.695934 
L 111.396134 175.694281 
L 111.524047 174.861223 
L 111.843831 167.696926 
L 111.971745 172.028826 
L 112.163615 180.192793 
L 112.227572 180.026182 
L 112.355486 173.528331 
L 112.547356 163.531636 
L 112.611313 164.697917 
L 112.931097 183.525025 
L 112.995054 181.692298 
L 113.314838 162.032132 
L 113.442751 169.029818 
L 113.698578 183.858248 
L 113.826492 176.527339 
L 114.082319 162.365355 
L 114.210233 169.862876 
L 114.46606 183.358413 
L 114.593974 176.027504 
L 114.785844 162.531967 
L 114.849801 162.86519 
L 114.977714 170.695934 
L 115.169585 183.358413 
L 115.233542 183.02519 
L 115.553326 162.531967 
L 115.617282 163.198413 
L 115.937066 183.525025 
L 116.001023 182.525355 
L 116.320807 162.365355 
L 116.384764 163.86486 
L 116.704548 183.358413 
L 116.768505 181.858909 
L 117.088289 162.698579 
L 117.152246 164.364694 
L 117.47203 182.691967 
L 117.535986 181.359074 
L 117.85577 163.365025 
L 117.919727 164.531306 
L 118.239511 182.525355 
L 118.303468 181.858909 
L 118.623252 163.031802 
L 118.687209 163.86486 
L 119.006993 183.191802 
L 119.070949 182.192132 
L 119.390733 162.698579 
L 119.45469 164.198083 
L 119.774474 182.691967 
L 119.838431 180.692628 
L 120.094258 164.697917 
L 120.158215 164.864529 
L 120.350085 174.694612 
L 120.477999 179.359736 
L 120.541956 179.193124 
L 120.925697 167.863537 
L 120.989653 168.863207 
L 121.373394 177.360397 
L 121.501308 174.694612 
L 121.757135 167.363702 
L 121.821092 167.863537 
L 122.140876 179.526347 
L 122.204833 178.360066 
L 122.524617 165.697587 
L 122.65253 170.196099 
L 122.908357 179.85957 
L 123.036271 174.528 
L 123.228141 165.530975 
L 123.292098 166.03081 
L 123.483969 176.027504 
L 123.611882 180.026182 
L 123.675839 179.193124 
L 123.995623 166.197421 
L 124.123537 169.862876 
L 124.379364 179.359736 
L 124.507277 175.194446 
L 124.763104 166.863868 
L 125.082888 178.193455 
L 125.146845 177.69362 
L 125.466629 168.863207 
L 125.530586 169.19643 
L 125.85037 175.361058 
L 125.978284 174.194777 
L 126.234111 172.528661 
L 126.362024 172.195438 
L 126.489938 171.528992 
L 126.553895 171.36238 
L 126.617852 171.695603 
L 126.937636 176.69395 
L 127.001592 176.027504 
L 127.321376 167.363702 
L 127.385333 168.19676 
L 127.705117 180.026182 
L 127.769074 179.193124 
L 128.088858 163.86486 
L 128.152815 165.364364 
L 128.472599 183.358413 
L 128.600512 176.360727 
L 128.85634 162.531967 
L 129.04821 176.027504 
L 129.176124 183.02519 
L 129.24008 182.525355 
L 129.559864 163.86486 
L 129.623821 164.864529 
L 129.943605 179.85957 
L 130.007562 178.693289 
L 130.327346 167.863537 
L 130.45526 170.529322 
L 130.64713 176.194116 
L 130.711087 176.360727 
L 130.839 174.028165 
L 131.030871 170.529322 
L 131.158784 172.028826 
L 131.350655 174.528 
L 131.478568 173.528331 
L 131.670439 172.195438 
L 131.734395 172.36205 
L 131.926266 173.361719 
L 132.054179 172.861884 
L 132.182093 172.36205 
L 132.43792 174.361388 
L 132.501877 174.194777 
L 132.693747 171.195769 
L 132.757704 170.362711 
L 132.821661 170.529322 
L 133.141445 177.193785 
L 133.205402 176.360727 
L 133.461229 166.697256 
L 133.525186 166.863868 
L 133.717056 176.69395 
L 133.84497 180.85924 
L 133.908927 179.692959 
L 134.228711 164.198083 
L 134.420581 176.194116 
L 134.548495 181.359074 
L 134.612451 180.692628 
L 134.932235 165.197752 
L 134.996192 166.364033 
L 135.315976 179.026512 
L 135.44389 175.194446 
L 135.63576 168.863207 
L 135.699717 168.696595 
L 136.019501 175.027835 
L 136.083458 174.694612 
L 136.275328 172.695273 
L 136.531155 174.194777 
L 136.850939 169.363041 
L 136.914896 170.362711 
L 137.170723 178.693289 
L 137.23468 178.360066 
L 137.362594 173.528331 
L 137.554464 165.197752 
L 137.618421 165.530975 
L 137.810291 176.360727 
L 137.938205 182.192132 
L 138.002162 182.025521 
L 138.130075 174.528 
L 138.321946 162.531967 
L 138.385902 162.86519 
L 138.577773 176.527339 
L 138.705686 184.358083 
L 138.769643 184.191471 
L 138.897557 175.860893 
L 139.089427 160.532628 
L 139.153384 160.69924 
L 139.345254 177.027174 
L 139.473168 186.024198 
L 139.537125 185.690975 
L 139.665038 175.361058 
L 139.856909 159.199736 
L 139.920866 160.199405 
L 140.24065 186.857256 
L 140.304606 185.024529 
L 140.62439 158.533289 
L 140.752304 169.029818 
L 140.944174 188.856595 
L 141.008131 187.690314 
L 141.327915 152.868496 
L 141.391872 157.200397 
L 141.711656 197.85362 
L 141.83957 176.360727 
L 142.03144 138.539901 
L 142.095397 141.372298 
L 142.415181 217.347174 
L 142.479138 211.182545 
L 142.798921 118.213289 
L 142.862878 129.876099 
L 143.182662 233.341884 
L 143.310576 189.689653 
L 143.502446 107.050314 
L 143.566403 107.216926 
L 143.694317 156.53395 
L 143.886187 242.338909 
L 143.950144 241.672463 
L 144.142014 151.535603 
L 144.269928 105.717421 
L 144.333885 108.049983 
L 144.525755 187.023868 
L 144.717625 234.674777 
L 144.845539 201.519074 
L 145.101366 110.382545 
L 145.165323 112.881719 
L 145.357193 188.023537 
L 145.549064 246.170975 
L 145.676977 208.51676 
L 145.932805 84.057917 
L 145.996761 92.055273 
L 146.316545 278.993455 
L 146.380502 271.329322 
L 146.700286 54.734281 
L 146.764243 65.23081 
L 147.084027 295.488 
L 147.147984 280.326347 
L 147.467768 53.568 
L 147.531725 66.896926 
L 147.851509 288.323702 
L 147.915465 275.494612 
L 148.235249 65.397421 
L 148.299206 77.226843 
L 148.61899 272.16238 
L 148.682947 263.331967 
L 149.002731 82.725025 
L 149.066688 90.72238 
L 149.386472 252.168992 
L 149.450428 243.838413 
L 149.770212 108.549818 
L 149.834169 117.047008 
L 150.153953 221.345851 
L 150.21791 213.681719 
L 150.537694 140.206017 
L 150.665608 158.200066 
L 150.921435 190.689322 
L 151.113305 174.694612 
L 151.305176 167.363702 
L 151.561003 169.029818 
L 151.62496 169.363041 
L 151.752873 172.028826 
L 152.0087 182.691967 
L 152.072657 181.858909 
L 152.264528 166.364033 
L 152.392441 158.033455 
L 152.456398 159.033124 
L 152.776182 191.52238 
L 152.840139 188.689983 
L 153.159923 152.868496 
L 153.287836 166.863868 
L 153.479707 192.355438 
L 153.543664 192.022215 
L 153.735534 165.697587 
L 153.863448 153.868165 
L 153.927404 155.867504 
L 154.247188 190.689322 
L 154.311145 186.524033 
L 154.566972 156.867174 
L 154.630929 157.700231 
L 154.950713 187.690314 
L 155.01467 185.524364 
L 155.334454 158.033455 
L 155.398411 159.69957 
L 155.718195 190.689322 
L 155.782151 188.023537 
L 156.101935 151.702215 
L 156.165892 154.701223 
L 156.485676 198.520066 
L 156.549633 194.354777 
L 156.869417 143.371636 
L 156.933374 149.03643 
L 157.253158 204.684694 
L 157.381071 182.525355 
L 157.572942 141.705521 
L 157.636899 142.371967 
L 157.828769 182.358744 
L 157.956683 202.018909 
L 158.020639 200.352793 
L 158.340423 147.037091 
L 158.40438 148.703207 
L 158.724164 197.85362 
L 158.788121 196.187504 
L 159.107905 148.03676 
L 159.171862 150.369322 
L 159.491646 198.686678 
L 159.555603 195.521058 
L 159.875387 144.371306 
L 159.939343 147.370314 
L 160.259127 207.183868 
L 160.323084 202.685355 
L 160.642868 135.041058 
L 160.706825 139.372959 
L 161.026609 215.014612 
L 161.090566 212.015603 
L 161.282436 155.201058 
L 161.41035 125.71081 
L 161.474306 127.043702 
L 161.666177 187.357091 
L 161.858047 225.011306 
L 161.985961 191.022545 
L 162.241788 114.214612 
L 162.369702 148.703207 
L 162.625529 234.008331 
L 162.753442 202.018909 
L 163.00927 111.048992 
L 163.073226 117.546843 
L 163.39301 233.675107 
L 163.456967 231.009322 
L 163.776751 114.714446 
L 163.904665 130.042711 
L 164.224449 229.509818 
L 164.352362 194.688 
L 164.60819 118.046678 
L 164.736103 147.203702 
L 164.99193 226.344198 
L 165.055887 219.846347 
L 165.375671 120.879074 
L 165.439628 126.543868 
L 165.759412 223.511802 
L 165.823369 217.180562 
L 166.143153 124.211306 
L 166.20711 132.875107 
L 166.526893 216.014281 
L 166.654807 185.024529 
L 166.846677 136.207339 
L 166.910634 138.206678 
L 167.230418 200.519405 
L 167.294375 196.187504 
L 167.614159 158.033455 
L 167.742073 163.365025 
L 168.253727 190.855934 
L 168.317684 188.689983 
L 168.509554 154.534612 
L 168.637468 138.706512 
L 168.701425 144.204694 
L 169.021209 219.679736 
L 169.149122 185.524364 
L 169.340993 119.212959 
L 169.404949 120.545851 
L 169.59682 194.521388 
L 169.724733 229.509818 
L 169.78869 224.34486 
L 170.108474 118.546512 
L 170.172431 126.377256 
L 170.492215 221.012628 
L 170.556172 212.348826 
L 170.875956 132.541884 
L 171.003869 157.033785 
L 171.259697 205.184529 
L 171.38761 185.024529 
L 171.643437 148.03676 
L 171.771351 163.365025 
L 172.027178 192.688661 
L 172.155092 180.192793 
L 172.410919 157.200397 
L 172.538832 167.863537 
L 172.730703 184.691306 
L 172.79466 184.524694 
L 173.1784 165.530975 
L 173.242357 166.863868 
L 173.754012 181.025851 
L 173.817968 180.359405 
L 173.945882 172.028826 
L 174.137752 156.034116 
L 174.201709 156.367339 
L 174.39358 185.357752 
L 174.521493 201.185851 
L 174.58545 198.686678 
L 174.905234 132.04205 
L 174.969191 138.040066 
L 175.288975 225.177917 
L 175.416888 187.190479 
L 175.608759 111.88205 
L 175.672716 113.381554 
L 175.864586 200.352793 
L 175.9925 241.672463 
L 176.056456 235.507835 
L 176.37624 100.719074 
L 176.440197 111.548826 
L 176.759981 245.837752 
L 176.887895 201.519074 
L 177.143722 101.552132 
L 177.271636 148.869818 
L 177.527463 241.172628 
L 177.655376 192.022215 
L 177.847247 108.71643 
L 177.911204 109.216264 
L 178.103074 190.855934 
L 178.230988 235.674446 
L 178.294944 235.174612 
L 178.486815 152.035438 
L 178.614728 109.716099 
L 178.678685 113.714777 
L 178.998469 235.174612 
L 179.062426 228.510149 
L 179.38221 111.548826 
L 179.446167 122.211967 
L 179.765951 232.508826 
L 179.893864 190.522711 
L 180.085735 114.547835 
L 180.149691 116.547174 
L 180.469475 229.67643 
L 180.533432 223.845025 
L 180.853216 119.712793 
L 180.917173 127.376926 
L 181.236957 220.17957 
L 181.364871 193.355107 
L 181.620698 136.207339 
L 181.748611 156.200727 
L 182.004439 196.687339 
L 182.068395 196.687339 
L 182.196309 187.190479 
L 182.58005 143.038413 
L 182.707963 163.031802 
L 182.963791 218.680066 
L 183.091704 191.355769 
L 183.347531 115.047669 
L 183.475445 150.369322 
L 183.731272 239.173289 
L 183.859186 194.021554 
L 184.115013 106.883702 
L 184.306883 192.355438 
L 184.434797 237.007339 
L 184.498754 234.508165 
L 184.818538 114.714446 
L 184.882494 120.046017 
L 185.202278 224.678083 
L 185.266235 217.347174 
L 185.586019 126.377256 
L 185.713933 156.53395 
L 185.905803 216.347504 
L 185.96976 215.681058 
L 186.16163 154.701223 
L 186.289544 127.376926 
L 186.353501 133.374942 
L 186.673285 219.679736 
L 186.801198 186.690645 
L 186.993069 125.210975 
L 187.057026 125.877421 
L 187.248896 191.022545 
L 187.37681 223.511802 
L 187.440766 219.346512 
L 187.76055 123.54486 
L 187.824507 129.209653 
L 188.144291 218.01362 
L 188.208248 213.681719 
L 188.528032 130.542545 
L 188.591989 131.875438 
L 188.783859 184.358083 
L 188.97573 214.348165 
L 189.103643 187.690314 
L 189.35947 128.209983 
L 189.487384 153.534942 
L 189.743211 221.845686 
L 189.871125 191.355769 
L 190.126952 122.211967 
L 190.254866 161.199074 
L 190.446736 223.845025 
L 190.510693 219.346512 
L 190.830477 126.877091 
L 190.894433 136.540562 
L 191.150261 208.683372 
L 191.214217 207.517091 
L 191.534001 150.202711 
L 191.597958 151.868826 
L 192.109613 189.523041 
L 192.173569 190.189488 
L 192.301483 179.359736 
L 192.55731 138.040066 
L 192.621267 142.538579 
L 192.941051 225.51114 
L 193.005008 216.680727 
L 193.324792 106.883702 
L 193.452705 153.534942 
L 193.708533 246.337587 
L 193.836446 190.522711 
L 194.028317 94.221223 
L 194.092273 95.220893 
L 194.284144 199.852959 
L 194.412057 256.667504 
L 194.476014 253.501884 
L 194.795798 89.556099 
L 194.859755 95.387504 
L 195.179539 253.668496 
L 195.243496 245.67114 
L 195.56328 98.219901 
L 195.627237 108.216595 
L 195.947021 238.673455 
L 196.010977 228.010314 
L 196.330761 117.380231 
L 196.458675 152.035438 
L 196.714502 217.847008 
L 196.842416 190.022876 
L 197.098243 134.874446 
L 197.226156 156.200727 
L 197.481984 207.683702 
L 197.609897 190.522711 
L 197.865724 138.873124 
L 197.929681 142.038744 
L 198.249465 209.183207 
L 198.313422 206.017587 
L 198.633206 134.707835 
L 198.697163 138.873124 
L 199.016947 212.848661 
L 199.080904 206.684033 
L 199.400688 132.875107 
L 199.528601 160.69924 
L 199.720472 210.349488 
L 199.784428 209.51643 
L 199.976299 160.199405 
L 200.104212 136.37395 
L 200.168169 139.372959 
L 200.487953 208.016926 
L 200.55191 201.352463 
L 200.807737 141.372298 
L 200.871694 141.705521 
L 201.063564 185.024529 
L 201.191478 203.518413 
L 201.255435 199.019901 
L 201.575219 144.204694 
L 201.703132 165.530975 
L 201.895003 201.352463 
L 201.95896 199.519736 
L 202.278744 144.87114 
L 202.3427 148.03676 
L 202.662484 202.851967 
L 202.726441 201.01924 
L 202.918311 159.532959 
L 203.046225 137.37362 
L 203.110182 139.372959 
L 203.302052 188.689983 
L 203.429966 214.848 
L 203.493923 212.68205 
L 203.685793 154.701223 
L 203.813707 123.54486 
L 203.877663 125.877421 
L 204.069534 195.687669 
L 204.197447 230.342876 
L 204.261404 225.177917 
L 204.581188 111.88205 
L 204.645145 122.045355 
L 204.964929 229.67643 
L 205.092843 193.521719 
L 205.34867 124.044694 
L 205.476583 156.034116 
L 205.732411 212.182215 
L 205.924281 167.530314 
L 206.116151 145.370975 
L 206.499892 189.35643 
L 206.563849 186.024198 
L 206.883633 167.863537 
L 207.011547 168.19676 
L 207.267374 165.364364 
L 207.395287 172.861884 
L 207.651115 194.021554 
L 207.779028 176.860562 
L 208.034855 137.37362 
L 208.162769 167.197091 
L 208.354639 224.34486 
L 208.418596 221.512463 
L 208.73838 109.216264 
L 208.802337 118.046678 
L 209.122121 243.171967 
L 209.186078 229.509818 
L 209.505862 100.552463 
L 209.633775 152.035438 
L 209.825646 244.838083 
L 209.889602 244.50486 
L 210.081473 150.535934 
L 210.209386 102.551802 
L 210.273343 105.384198 
L 210.593127 240.33957 
L 210.657084 237.507174 
L 210.976868 107.383537 
L 211.040825 111.88205 
L 211.360609 236.007669 
L 211.424566 229.843041 
L 211.74435 116.047339 
L 211.808306 126.710479 
L 212.12809 219.013289 
L 212.319961 163.365025 
L 212.447874 137.040397 
L 212.511831 139.706182 
L 212.831615 197.187174 
L 213.023486 172.028826 
L 213.151399 160.366017 
L 213.215356 161.199074 
L 213.53514 177.860231 
L 213.854924 171.862215 
L 213.918881 172.195438 
L 214.110751 175.194446 
L 214.174708 174.694612 
L 214.494492 168.030149 
L 214.622405 171.695603 
L 214.878233 181.525686 
L 215.006146 176.027504 
L 215.261973 160.532628 
L 215.32593 162.198744 
L 215.645714 190.855934 
L 215.709671 189.023207 
L 216.029455 149.03643 
L 216.093412 152.368661 
L 216.413196 200.686017 
L 216.477153 195.354446 
L 216.796937 143.038413 
L 216.92485 161.365686 
L 217.180677 205.184529 
L 217.308591 185.19114 
L 217.564418 139.372959 
L 217.692332 161.865521 
L 217.884202 205.517752 
L 217.948159 205.35114 
L 218.076073 181.359074 
L 218.267943 142.205355 
L 218.3319 143.371636 
L 218.52377 182.858579 
L 218.651684 201.519074 
L 218.715641 198.520066 
L 219.035425 150.369322 
L 219.163338 165.03114 
L 219.355209 187.690314 
L 219.419165 186.19081 
L 219.674993 165.697587 
L 219.738949 166.364033 
L 219.994777 176.69395 
L 220.12269 171.029157 
L 220.250604 164.864529 
L 220.31456 166.03081 
L 220.634344 187.357091 
L 220.762258 174.028165 
L 220.954128 150.702545 
L 221.018085 153.201719 
L 221.337869 200.01957 
L 221.401826 195.854281 
L 221.72161 142.538579 
L 221.785567 147.203702 
L 222.105351 206.184198 
L 222.169308 201.185851 
L 222.489092 139.206347 
L 222.617005 160.032793 
L 222.872832 204.518083 
L 223.000746 182.192132 
L 223.192616 143.371636 
L 223.256573 145.037752 
L 223.576357 198.686678 
L 223.640314 192.022215 
L 223.896141 152.535273 
L 224.024055 164.531306 
L 224.215925 188.523372 
L 224.279882 187.523702 
L 224.599666 158.866512 
L 224.663623 162.032132 
L 224.91945 186.19081 
L 224.983407 184.691306 
L 225.303191 162.365355 
L 225.622975 179.526347 
L 225.686932 178.193455 
L 225.942759 171.36238 
L 226.134629 173.028496 
L 226.198586 172.695273 
L 226.390456 170.196099 
L 226.454413 170.362711 
L 226.838154 177.193785 
L 226.966067 175.361058 
L 227.285851 165.697587 
L 227.413765 170.695934 
L 227.669592 180.85924 
L 227.861463 173.195107 
L 228.11729 165.864198 
L 228.181247 166.530645 
L 228.564987 181.359074 
L 228.628944 180.526017 
L 229.012685 163.031802 
L 229.076642 164.364694 
L 229.396426 184.358083 
L 229.460383 183.691636 
L 229.844123 164.531306 
L 229.90808 165.697587 
L 230.227864 177.527008 
L 230.419735 184.02486 
L 230.547648 179.193124 
L 230.867432 153.868165 
L 230.995346 166.697256 
L 231.251173 200.686017 
L 231.379087 183.191802 
L 231.634914 139.039736 
L 231.762827 160.032793 
L 232.018655 210.682711 
L 232.146568 186.690645 
L 232.402395 135.207669 
L 232.530309 161.865521 
L 232.722179 206.850645 
L 232.786136 206.184198 
L 232.978006 164.697917 
L 233.10592 144.704529 
L 233.169877 146.204033 
L 233.489661 193.854942 
L 233.553618 191.855603 
L 233.873402 159.866182 
L 233.937358 161.698909 
L 234.257142 179.026512 
L 234.321099 178.526678 
L 234.768797 170.362711 
L 234.89671 169.363041 
L 234.960667 169.529653 
L 235.088581 172.861884 
L 235.344408 180.692628 
L 235.472322 173.528331 
L 235.664192 161.199074 
L 235.728149 162.86519 
L 236.047933 187.357091 
L 236.11189 183.858248 
L 236.367717 156.867174 
L 236.431674 158.200066 
L 236.751458 189.189818 
L 236.815414 185.19114 
L 237.071242 157.700231 
L 237.135198 159.866182 
L 237.391026 186.690645 
L 237.454982 185.024529 
L 237.71081 158.699901 
L 237.774766 161.032463 
L 238.030594 190.189488 
L 238.09455 188.023537 
L 238.414334 150.535934 
L 238.542248 169.19643 
L 238.734118 202.685355 
L 238.798075 201.352463 
L 238.989945 156.700562 
L 239.117859 134.541223 
L 239.181816 138.040066 
L 239.5016 217.847008 
L 239.565557 212.182215 
L 239.885341 124.544529 
L 239.949297 129.542876 
L 240.269081 223.845025 
L 240.333038 220.512793 
L 240.652822 120.046017 
L 240.780736 136.207339 
L 241.036563 226.344198 
L 241.10052 226.177587 
L 241.29239 159.199736 
L 241.420304 121.045686 
L 241.484261 121.212298 
L 241.676131 184.524694 
L 241.804045 220.679405 
L 241.868001 220.512793 
L 242.059872 161.698909 
L 242.187785 130.209322 
L 242.251742 131.208992 
L 242.571526 208.683372 
L 242.635483 204.851306 
L 242.955267 147.703537 
L 243.083181 161.865521 
L 243.339008 189.689653 
L 243.466921 179.026512 
L 243.658792 161.032463 
L 243.722749 162.032132 
L 244.042533 181.359074 
L 244.170446 175.361058 
L 244.362316 166.530645 
L 244.426273 166.697256 
L 244.746057 179.526347 
L 244.873971 177.860231 
L 245.193755 164.364694 
L 245.321668 170.196099 
L 245.577496 184.691306 
L 245.705409 176.69395 
L 245.961236 158.366678 
L 246.08915 169.029818 
L 246.344977 191.52238 
L 246.472891 177.527008 
L 246.664761 150.535934 
L 246.728718 150.869157 
L 246.920588 181.858909 
L 247.048502 199.019901 
L 247.112459 198.186843 
L 247.304329 161.698909 
L 247.432243 142.205355 
L 247.4962 143.70486 
L 247.815984 208.350149 
L 247.87994 204.684694 
L 248.199724 135.874116 
L 248.263681 140.53924 
L 248.583465 210.516099 
L 248.647422 205.184529 
L 248.967206 136.873785 
L 249.031163 142.038744 
L 249.350947 205.184529 
L 249.414904 200.686017 
L 249.734688 146.537256 
L 249.798644 148.703207 
L 250.182385 195.354446 
L 250.246342 192.855273 
L 250.630083 149.203041 
L 250.694039 154.034777 
L 251.013823 198.020231 
L 251.141737 185.357752 
L 251.397564 148.203372 
L 251.461521 150.702545 
L 251.781305 195.521058 
L 251.845262 193.854942 
L 252.229003 154.034777 
L 252.292959 158.866512 
L 252.612743 189.523041 
L 252.740657 178.693289 
L 252.996484 159.532959 
L 253.124398 168.529983 
L 253.380225 185.19114 
L 253.572095 167.363702 
L 253.700009 159.69957 
L 253.827923 169.529653 
L 254.019793 188.190149 
L 254.08375 186.024198 
L 254.403534 154.534612 
L 254.531447 170.196099 
L 254.723318 196.85395 
L 254.787275 194.354777 
L 255.107059 144.204694 
L 255.171015 148.869818 
L 255.490799 204.851306 
L 255.554756 199.186512 
L 255.87454 138.373289 
L 256.002454 157.53362 
L 256.258281 210.682711 
L 256.386194 191.688992 
L 256.642022 130.542545 
L 256.705978 135.041058 
L 257.025762 221.512463 
L 257.089719 214.348165 
L 257.409503 120.712463 
L 257.47346 131.875438 
L 257.793244 224.678083 
L 257.985114 155.867504 
L 258.113028 119.879405 
L 258.176985 123.045025 
L 258.496769 225.51114 
L 258.560726 218.346843 
L 258.88051 123.378248 
L 258.944466 132.708496 
L 259.26425 218.846678 
L 259.392164 188.856595 
L 259.647991 129.876099 
L 259.775905 160.199405 
L 259.967775 213.348496 
L 260.031732 213.015273 
L 260.223602 160.532628 
L 260.351516 134.541223 
L 260.415473 137.540231 
L 260.735257 206.017587 
L 260.799214 199.186512 
L 261.055041 148.203372 
L 261.118998 149.536264 
L 261.438782 190.022876 
L 261.502738 185.357752 
L 261.758566 161.365686 
L 262.014393 183.858248 
L 262.07835 183.191802 
L 262.334177 157.53362 
L 262.398133 158.699901 
L 262.717917 194.021554 
L 262.845831 175.361058 
L 263.037701 145.537587 
L 263.101658 148.703207 
L 263.421442 205.017917 
L 263.485399 198.686678 
L 263.805183 137.207008 
L 263.933097 163.365025 
L 264.124967 213.515107 
L 264.188924 212.68205 
L 264.380794 155.034446 
L 264.508708 126.710479 
L 264.572665 131.375603 
L 264.892449 221.512463 
L 264.956405 213.015273 
L 265.276189 122.378579 
L 265.404103 157.53362 
L 265.595973 224.511471 
L 265.65993 223.34519 
L 265.851801 151.868826 
L 265.979714 119.712793 
L 266.043671 125.877421 
L 266.363455 224.011636 
L 266.427412 213.348496 
L 266.683239 127.376926 
L 266.747196 127.710149 
L 267.06698 213.848331 
L 267.130937 209.683041 
L 267.450721 139.206347 
L 267.514677 144.87114 
L 267.834461 198.353455 
L 267.962375 183.02519 
L 268.218202 154.701223 
L 268.346116 166.364033 
L 268.601943 185.357752 
L 268.729856 177.527008 
L 268.921727 164.031471 
L 268.985684 164.697917 
L 269.241511 179.193124 
L 269.305468 178.693289 
L 269.561295 165.364364 
L 269.625252 166.530645 
L 269.881079 184.857917 
L 269.945036 183.691636 
L 270.26482 154.867835 
L 270.328776 159.866182 
L 270.584604 197.020562 
L 270.64856 194.688 
L 270.968344 144.537917 
L 271.032301 149.702876 
L 271.352085 203.351802 
L 271.479999 179.359736 
L 271.671869 141.705521 
L 271.735826 144.704529 
L 272.05561 201.852298 
L 272.119567 195.521058 
L 272.375394 146.703868 
L 272.439351 148.536595 
L 272.759135 197.187174 
L 272.823092 191.189157 
L 273.078919 148.536595 
L 273.142876 152.035438 
L 273.46266 197.020562 
L 273.65453 161.865521 
L 273.782444 144.704529 
L 273.8464 148.03676 
L 274.166184 205.35114 
L 274.230141 198.853289 
L 274.549925 137.873455 
L 274.741795 184.524694 
L 274.869709 210.516099 
L 274.933666 209.016595 
L 275.125536 159.366347 
L 275.25345 133.541554 
L 275.317407 135.374281 
L 275.509277 188.689983 
L 275.637191 213.515107 
L 275.701147 209.683041 
L 276.020931 134.707835 
L 276.084888 139.206347 
L 276.404672 207.350479 
L 276.468629 202.352132 
L 276.788413 143.538248 
L 276.916327 159.366347 
L 277.172154 195.854281 
L 277.300067 184.524694 
L 277.555895 156.034116 
L 277.619851 156.867174 
L 278.003592 187.190479 
L 278.067549 186.024198 
L 278.259419 168.696595 
L 278.45129 157.367008 
L 278.579203 167.530314 
L 278.835031 188.689983 
L 278.962944 178.026843 
L 279.218771 158.366678 
L 279.538555 185.357752 
L 279.602512 183.858248 
L 279.858339 163.531636 
L 279.922296 163.86486 
L 280.24208 180.359405 
L 280.561864 164.697917 
L 280.625821 167.363702 
L 280.881648 184.857917 
L 280.945605 182.858579 
L 281.265389 155.867504 
L 281.393302 171.36238 
L 281.585173 196.354116 
L 281.64913 194.021554 
L 281.968914 142.871802 
L 282.03287 147.703537 
L 282.352654 209.183207 
L 282.416611 201.01924 
L 282.736395 132.04205 
L 282.864309 164.031471 
L 283.056179 219.513124 
L 283.120136 217.513785 
L 283.312006 151.535603 
L 283.43992 120.046017 
L 283.503877 125.544198 
L 283.823661 229.843041 
L 283.887618 219.179901 
L 284.207402 115.380893 
L 284.335315 158.533289 
L 284.527186 231.009322 
L 284.591142 227.177256 
L 284.910926 116.380562 
L 284.974883 125.210975 
L 285.294667 222.512132 
L 285.422581 188.023537 
L 285.614451 131.375603 
L 285.678408 133.041719 
L 285.998192 205.684364 
L 286.062149 202.352132 
L 286.381933 148.536595 
L 286.445889 151.20238 
L 286.765673 190.356099 
L 286.82963 189.856264 
L 287.085457 164.531306 
L 287.213371 158.033455 
L 287.277328 159.366347 
L 287.661069 188.35676 
L 287.725025 184.857917 
L 288.044809 155.534281 
L 288.172723 166.697256 
L 288.42855 190.522711 
L 288.556464 179.526347 
L 288.812291 156.034116 
L 288.940205 165.364364 
L 289.196032 187.690314 
L 289.259989 186.690645 
L 289.451859 170.862545 
L 289.643729 157.033785 
L 289.707686 157.700231 
L 289.8356 169.363041 
L 290.091427 194.354777 
L 290.219341 181.025851 
L 290.475168 145.037752 
L 290.603081 162.86519 
L 290.858909 204.851306 
L 290.986822 182.025521 
L 291.178693 138.539901 
L 291.242649 139.706182 
L 291.43452 186.857256 
L 291.562433 209.016595 
L 291.62639 204.851306 
L 291.946174 138.539901 
L 292.010131 145.87081 
L 292.329915 203.851636 
L 292.521785 164.531306 
L 292.649699 144.038083 
L 292.713656 145.370975 
L 293.03344 199.519736 
L 293.097396 197.520397 
L 293.41718 148.536595 
L 293.481137 149.869488 
L 293.864878 196.020893 
L 293.928835 189.523041 
L 294.184662 149.203041 
L 294.248619 149.869488 
L 294.440489 180.526017 
L 294.568403 196.187504 
L 294.63236 194.021554 
L 294.952144 153.368331 
L 295.0161 157.53362 
L 295.271928 187.190479 
L 295.335884 185.524364 
L 295.591712 164.198083 
L 295.655668 165.197752 
L 295.911496 179.359736 
L 296.039409 173.028496 
L 296.23128 164.531306 
L 296.42315 179.85957 
L 296.551064 184.857917 
L 296.678977 175.027835 
L 296.870848 158.699901 
L 296.934804 160.532628 
L 297.254588 186.690645 
L 297.446459 169.862876 
L 297.574372 161.865521 
L 297.638329 162.86519 
L 297.958113 179.526347 
L 298.21394 169.696264 
L 298.277897 170.029488 
L 298.533724 175.860893 
L 298.661638 171.528992 
L 298.789551 166.364033 
L 298.853508 166.863868 
L 299.045379 178.360066 
L 299.173292 182.691967 
L 299.301206 176.69395 
L 299.557033 161.532298 
L 299.684947 169.029818 
L 299.940774 183.691636 
L 300.068687 177.69362 
L 300.324515 163.698248 
L 300.388471 164.031471 
L 300.516385 168.863207 
L 300.836169 183.525025 
L 300.964083 177.527008 
L 301.21991 159.199736 
L 301.283867 159.366347 
L 301.41178 168.863207 
L 301.667607 193.355107 
L 301.795521 180.192793 
L 302.051348 146.870479 
L 302.179262 165.197752 
L 302.371132 202.851967 
L 302.435089 202.685355 
L 302.626959 160.366017 
L 302.754873 139.706182 
L 302.81883 143.038413 
L 303.138614 206.517421 
L 303.202571 199.519736 
L 303.458398 141.205686 
L 303.522355 142.871802 
L 303.842139 201.519074 
L 303.906095 196.520727 
L 304.161922 149.536264 
L 304.225879 149.869488 
L 304.545663 191.52238 
L 304.60962 189.35643 
L 304.929404 160.69924 
L 305.121274 172.195438 
L 305.313145 179.692959 
L 305.377102 180.026182 
L 305.441058 179.359736 
L 305.632929 171.36238 
L 305.824799 163.86486 
L 305.888756 164.697917 
L 306.272497 184.191471 
L 306.336454 181.525686 
L 306.656238 157.200397 
L 306.784151 167.363702 
L 307.039978 192.355438 
L 307.167892 179.526347 
L 307.423719 151.368992 
L 307.551633 164.031471 
L 307.80746 198.353455 
L 307.871417 195.521058 
L 308.191201 140.372628 
L 308.255158 144.038083 
L 308.574942 211.515769 
L 308.638898 204.351471 
L 308.958682 132.541884 
L 309.086596 162.032132 
L 309.278466 213.181884 
L 309.342423 211.848992 
L 309.662207 134.707835 
L 309.726164 138.873124 
L 310.045948 205.684364 
L 310.109905 199.852959 
L 310.429689 146.870479 
L 310.557602 162.365355 
L 310.813429 193.688331 
L 310.941343 182.358744 
L 311.19717 154.034777 
L 311.325084 163.365025 
L 311.580911 192.188826 
L 311.708825 181.192463 
L 311.964652 152.701884 
L 312.092565 167.696926 
L 312.284436 194.854612 
L 312.348393 193.021884 
L 312.668177 149.869488 
L 312.732133 154.867835 
L 312.987961 195.521058 
L 313.051917 194.688 
L 313.371701 150.869157 
L 313.435658 154.701223 
L 313.755442 190.356099 
L 313.947313 169.696264 
L 314.075226 160.032793 
L 314.139183 160.865851 
L 314.522924 180.692628 
L 314.714794 172.028826 
L 314.906665 168.363372 
L 315.162492 174.694612 
L 315.226449 174.361388 
L 315.418319 171.36238 
L 315.482276 171.695603 
L 315.738103 177.527008 
L 315.866017 174.361388 
L 316.121844 164.031471 
L 316.249757 170.695934 
L 316.505584 186.690645 
L 316.633498 174.528 
L 316.825368 152.868496 
L 316.889325 155.534281 
L 317.209109 196.020893 
L 317.273066 190.189488 
L 317.528893 148.703207 
L 317.59285 150.202711 
L 317.912634 196.687339 
L 317.976591 194.021554 
L 318.296375 151.20238 
L 318.360332 154.201388 
L 318.680116 191.688992 
L 318.744072 190.022876 
L 319.127813 155.367669 
L 319.19177 158.366678 
L 319.511554 192.855273 
L 319.575511 191.52238 
L 319.895295 150.369322 
L 319.959252 152.035438 
L 320.279036 195.854281 
L 320.342992 194.021554 
L 320.662776 151.20238 
L 320.726733 153.534942 
L 321.046517 191.355769 
L 321.110474 188.523372 
L 321.430258 159.532959 
L 321.558172 167.030479 
L 321.813999 181.192463 
L 322.133783 169.696264 
L 322.261696 170.695934 
L 322.453567 172.36205 
L 322.645437 172.861884 
L 322.773351 174.361388 
L 322.901264 176.027504 
L 322.965221 175.860893 
L 323.093135 172.528661 
L 323.285005 168.19676 
L 323.412919 172.36205 
L 323.604789 177.360397 
L 323.732703 173.028496 
L 323.924573 168.19676 
L 324.052487 173.528331 
L 324.244357 179.359736 
L 324.372271 172.861884 
L 324.564141 162.531967 
L 324.692055 169.363041 
L 324.947882 187.190479 
L 325.139752 166.03081 
L 325.267666 155.367669 
L 325.331623 156.700562 
L 325.651407 192.355438 
L 325.715363 189.856264 
L 326.035147 153.201719 
L 326.099104 156.034116 
L 326.418888 191.688992 
L 326.482845 189.523041 
L 326.802629 155.201058 
L 326.866586 157.367008 
L 327.18637 187.190479 
L 327.250327 185.690975 
L 327.634067 160.865851 
L 327.698024 162.032132 
L 327.889895 176.860562 
L 328.081765 186.024198 
L 328.209678 177.69362 
L 328.465506 157.700231 
L 328.593419 167.197091 
L 328.849246 190.356099 
L 328.97716 177.027174 
L 329.16903 153.368331 
L 329.232987 155.534281 
L 329.552771 191.688992 
L 329.872555 155.201058 
L 329.936512 158.866512 
L 330.192339 187.690314 
L 330.256296 186.19081 
L 330.57608 160.69924 
L 330.640037 163.198413 
L 330.959821 182.525355 
L 331.087734 176.860562 
L 331.343562 165.530975 
L 331.471475 167.363702 
L 331.855216 183.525025 
L 331.919173 181.525686 
L 332.238957 156.53395 
L 332.36687 169.696264 
L 332.558741 192.855273 
L 332.622698 191.855603 
L 332.814568 163.365025 
L 332.942482 150.202711 
L 333.006438 152.701884 
L 333.326222 196.520727 
L 333.390179 193.521719 
L 333.709963 150.036099 
L 333.77392 153.035107 
L 334.093704 193.854942 
L 334.157661 193.021884 
L 334.349531 167.530314 
L 334.541401 150.036099 
L 334.669315 162.86519 
L 334.925142 199.519736 
L 334.989099 196.020893 
L 335.308883 142.871802 
L 335.37284 146.703868 
L 335.692624 205.184529 
L 335.756581 201.01924 
L 336.076365 139.706182 
L 336.140321 145.370975 
L 336.460105 204.518083 
L 336.588019 184.191471 
L 336.843846 145.87081 
L 337.035717 177.527008 
L 337.227587 194.188165 
L 337.419457 171.029157 
L 337.611328 156.867174 
L 337.739241 164.864529 
L 337.995069 185.024529 
L 338.059025 185.024529 
L 338.186939 178.859901 
L 338.506723 160.366017 
L 338.634637 168.363372 
L 338.890464 187.856926 
L 339.018377 179.359736 
L 339.274205 158.033455 
L 339.338161 159.866182 
L 339.657945 187.856926 
L 339.721902 187.523702 
L 339.849816 177.360397 
L 340.105643 155.034446 
L 340.233556 164.697917 
L 340.489384 193.854942 
L 340.617297 184.02486 
L 340.873124 148.869818 
L 340.937081 151.20238 
L 341.256865 200.186182 
L 341.320822 197.353785 
L 341.640606 143.871471 
L 341.704563 146.870479 
L 342.024347 202.518744 
L 342.088304 198.520066 
L 342.408088 145.370975 
L 342.472044 148.703207 
L 342.791828 198.686678 
L 342.855785 195.854281 
L 343.175569 149.869488 
L 343.239526 152.868496 
L 343.55931 190.522711 
L 343.623267 187.690314 
L 343.943051 162.032132 
L 344.070964 166.697256 
L 344.326792 177.193785 
L 344.390748 177.360397 
L 344.646576 176.527339 
L 344.774489 172.695273 
L 345.030316 162.698579 
L 345.15823 169.862876 
L 345.414057 188.523372 
L 345.541971 177.360397 
L 345.797798 154.534612 
L 345.925711 168.363372 
L 346.181539 192.022215 
L 346.309452 178.026843 
L 346.565279 154.201388 
L 346.693193 166.364033 
L 346.94902 190.689322 
L 347.076934 181.692298 
L 347.332761 155.201058 
L 347.396718 156.200727 
L 347.588588 177.360397 
L 347.780459 191.022545 
L 347.908372 181.359074 
L 348.164199 152.20205 
L 348.228156 153.868165 
L 348.54794 195.854281 
L 348.611897 194.521388 
L 348.931681 149.702876 
L 349.059595 156.53395 
L 349.379379 196.85395 
L 349.507292 180.85924 
L 349.763119 149.03643 
L 349.891033 164.031471 
L 350.14686 195.854281 
L 350.274774 183.191802 
L 350.530601 150.702545 
L 350.658515 161.698909 
L 350.914342 194.188165 
L 350.978299 191.688992 
L 351.298083 152.701884 
L 351.362039 154.368 
L 351.681823 192.022215 
L 351.74578 190.689322 
L 352.065564 155.367669 
L 352.129521 156.200727 
L 352.449305 189.35643 
L 352.577218 184.191471 
L 352.897002 157.367008 
L 353.024916 168.030149 
L 353.280743 189.023207 
L 353.408657 179.359736 
L 353.664484 154.867835 
L 353.792398 165.697587 
L 354.048225 192.022215 
L 354.176138 179.359736 
L 354.431966 153.534942 
L 354.623836 179.359736 
L 354.75175 191.855603 
L 354.815706 190.022876 
L 355.13549 157.367008 
L 355.263404 168.19676 
L 355.455274 184.358083 
L 355.583188 178.360066 
L 355.775058 165.364364 
L 355.839015 166.364033 
L 356.094842 179.526347 
L 356.222756 173.694942 
L 356.414626 163.365025 
L 356.54254 171.029157 
L 356.73441 186.524033 
L 356.798367 185.524364 
L 357.118151 154.867835 
L 357.182108 158.033455 
L 357.501892 194.354777 
L 357.565849 190.022876 
L 357.885633 149.369653 
L 358.013546 164.531306 
L 358.269373 197.187174 
L 358.397287 182.025521 
L 358.653114 148.869818 
L 358.781028 162.698579 
L 359.036855 195.354446 
L 359.164769 184.191471 
L 359.420596 152.701884 
L 359.484553 154.368 
L 359.868293 191.855603 
L 359.93225 187.690314 
L 360.252034 153.701554 
L 360.379948 163.365025 
L 360.635775 192.52205 
L 360.699732 190.022876 
L 361.019516 154.368 
L 361.083473 157.367008 
L 361.403257 187.856926 
L 361.53117 178.859901 
L 361.786997 162.698579 
L 361.914911 168.863207 
L 362.106781 178.193455 
L 362.170738 178.193455 
L 362.874263 168.19676 
L 363.002177 172.861884 
L 363.194047 182.025521 
L 363.258004 180.85924 
L 363.577788 162.032132 
L 363.641745 164.697917 
L 363.897572 184.524694 
L 363.961528 184.191471 
L 364.153399 167.863537 
L 364.281312 161.365686 
L 364.409226 168.529983 
L 364.601096 182.691967 
L 364.665053 182.025521 
L 364.984837 165.364364 
L 365.240664 179.359736 
L 365.304621 179.193124 
L 365.560448 166.197421 
L 365.624405 166.530645 
L 365.944189 181.192463 
L 366.008146 178.526678 
L 366.263973 161.698909 
L 366.391887 168.529983 
L 366.647714 186.857256 
L 366.775628 175.361058 
L 366.967498 155.867504 
L 367.031455 157.200397 
L 367.351239 192.022215 
L 367.415196 188.35676 
L 367.73498 153.035107 
L 367.862893 168.363372 
L 368.054764 193.355107 
L 368.11872 192.188826 
L 368.438504 152.368661 
L 368.502461 156.367339 
L 368.758288 190.356099 
L 368.822245 190.022876 
L 369.142029 158.699901 
L 369.205986 161.199074 
L 369.52577 182.691967 
L 369.845554 166.197421 
L 369.909511 167.530314 
L 370.165338 176.860562 
L 370.485122 170.862545 
L 370.740949 175.027835 
L 370.868863 173.028496 
L 371.060733 170.862545 
L 371.31656 175.361058 
L 371.380517 175.194446 
L 371.572387 171.36238 
L 371.636344 170.362711 
L 371.700301 170.529322 
L 371.956128 176.360727 
L 372.020085 176.194116 
L 372.339869 167.863537 
L 372.531739 176.69395 
L 372.659653 180.526017 
L 372.72361 179.359736 
L 373.043394 162.032132 
L 373.171307 171.695603 
L 373.363178 188.689983 
L 373.427135 187.190479 
L 373.746919 152.701884 
L 373.810875 156.700562 
L 374.130659 196.187504 
L 374.258573 178.193455 
L 374.450443 146.537256 
L 374.5144 148.03676 
L 374.834184 201.185851 
L 374.898141 197.353785 
L 375.217925 144.87114 
L 375.281882 150.202711 
L 375.601666 199.852959 
L 375.729579 182.025521 
L 375.985406 147.536926 
L 376.177277 180.026182 
L 376.30519 196.85395 
L 376.369147 195.521058 
L 376.688931 150.702545 
L 376.752888 152.701884 
L 377.072672 194.021554 
L 377.136629 191.355769 
L 377.456413 153.035107 
L 377.52037 156.867174 
L 377.840154 191.355769 
L 377.968067 177.69362 
L 378.159938 154.701223 
L 378.223894 155.700893 
L 378.543678 191.355769 
L 378.607635 188.190149 
L 378.863462 155.034446 
L 378.927419 155.201058 
L 379.11929 181.359074 
L 379.247203 191.52238 
L 379.375117 179.526347 
L 379.566987 154.867835 
L 379.630944 155.867504 
L 379.950728 190.689322 
L 380.014685 187.023868 
L 380.270512 156.200727 
L 380.334469 157.033785 
L 380.654253 188.35676 
L 380.71821 185.524364 
L 380.974037 160.532628 
L 381.037994 160.69924 
L 381.357778 181.858909 
L 381.485691 179.193124 
L 381.741518 168.529983 
L 381.869432 167.363702 
L 381.933389 167.696926 
L 382.061302 170.862545 
L 382.317129 182.525355 
L 382.381086 182.025521 
L 382.572957 167.030479 
L 382.70087 159.033124 
L 382.764827 160.366017 
L 383.084611 190.022876 
L 383.148568 187.023868 
L 383.468352 153.868165 
L 383.596265 166.364033 
L 383.852093 193.021884 
L 383.980006 177.860231 
L 384.171877 151.868826 
L 384.235833 153.368331 
L 384.555617 193.021884 
L 384.619574 190.855934 
L 384.939358 154.201388 
L 385.003315 156.867174 
L 385.323099 189.023207 
L 385.451013 179.193124 
L 385.70684 160.532628 
L 385.834753 168.529983 
L 386.090581 181.858909 
L 386.218494 176.860562 
L 386.474321 167.530314 
L 386.538278 167.696926 
L 386.730149 171.862215 
L 386.985976 178.859901 
L 387.049933 178.693289 
L 387.177846 174.028165 
L 387.433673 164.697917 
L 387.561587 170.529322 
L 387.817414 183.191802 
L 387.945328 175.361058 
L 388.137198 161.032463 
L 388.201155 162.032132 
L 388.520939 185.357752 
L 388.584896 182.858579 
L 388.90468 161.532298 
L 389.09655 176.194116 
L 389.224464 183.525025 
L 389.28842 183.02519 
L 389.608204 163.531636 
L 389.672161 164.697917 
L 389.991945 180.026182 
L 390.055902 179.526347 
L 390.439643 165.864198 
L 390.5036 166.197421 
L 390.631513 171.36238 
L 390.88734 182.025521 
L 391.015254 176.027504 
L 391.271081 161.698909 
L 391.398995 169.029818 
L 391.654822 186.357421 
L 391.782736 176.860562 
L 391.974606 158.699901 
L 392.038563 158.866512 
L 392.230433 177.860231 
L 392.358347 187.523702 
L 392.422304 186.857256 
L 392.614174 168.19676 
L 392.742088 158.366678 
L 392.806044 159.033124 
L 393.125828 186.857256 
L 393.189785 186.024198 
L 393.509569 159.199736 
L 393.573526 160.69924 
L 393.89331 185.857587 
L 393.957267 184.524694 
L 394.277051 160.865851 
L 394.341007 162.698579 
L 394.660791 183.02519 
L 394.788705 176.527339 
L 394.980575 164.864529 
L 395.044532 165.197752 
L 395.364316 178.693289 
L 395.428273 177.860231 
L 395.6841 169.19643 
L 395.748057 169.363041 
L 396.067841 176.027504 
L 396.387625 169.19643 
L 396.515539 172.861884 
L 396.707409 178.526678 
L 396.835323 175.027835 
L 397.09115 165.197752 
L 397.219063 170.362711 
L 397.474891 183.191802 
L 397.602804 176.027504 
L 397.794675 160.532628 
L 397.858631 160.865851 
L 398.050502 178.526678 
L 398.178415 186.690645 
L 398.242372 185.19114 
L 398.562156 159.69957 
L 398.626113 162.531967 
L 398.88194 184.524694 
L 398.945897 184.02486 
L 399.265681 164.031471 
L 399.329638 165.697587 
L 399.585465 178.693289 
L 399.713379 175.027835 
L 399.905249 168.863207 
L 399.969206 169.696264 
L 400.225033 177.360397 
L 400.416903 168.696595 
L 400.544817 166.364033 
L 400.736687 177.193785 
L 400.864601 181.858909 
L 400.992514 176.194116 
L 401.184385 162.86519 
L 401.248342 163.031802 
L 401.440212 177.527008 
L 401.568126 184.02486 
L 401.632082 182.858579 
L 401.951866 162.198744 
L 402.07978 169.862876 
L 402.27165 183.02519 
L 402.335607 182.358744 
L 402.655391 164.364694 
L 402.719348 165.530975 
L 403.039132 179.692959 
L 403.167046 176.027504 
L 403.422873 167.696926 
L 403.48683 168.030149 
L 403.87057 177.360397 
L 403.998484 175.527669 
L 404.318268 167.197091 
L 404.446182 170.529322 
L 404.702009 181.359074 
L 404.765966 180.026182 
L 405.08575 162.198744 
L 405.213663 170.029488 
L 405.405534 186.024198 
L 405.46949 185.857587 
L 405.597404 175.194446 
L 405.789274 157.200397 
L 405.853231 158.033455 
L 406.173015 191.355769 
L 406.236972 188.523372 
L 406.556756 152.701884 
L 406.684669 167.863537 
L 406.87654 194.688 
L 406.940497 193.688331 
L 407.260281 150.036099 
L 407.324237 153.534942 
L 407.644021 194.688 
L 407.771935 180.026182 
L 407.963805 153.701554 
L 408.027762 153.868165 
L 408.219633 178.193455 
L 408.347546 189.35643 
L 408.411503 188.190149 
L 408.731287 160.366017 
L 408.795244 162.032132 
L 409.115028 181.192463 
L 409.242941 176.860562 
L 409.498769 169.19643 
L 409.626682 171.36238 
L 409.818553 173.528331 
L 410.010423 171.862215 
L 410.07438 172.195438 
L 410.330207 177.860231 
L 410.394164 176.860562 
L 410.649991 164.697917 
L 410.713948 164.864529 
L 410.841861 171.862215 
L 411.033732 183.358413 
L 411.097689 182.358744 
L 411.417473 162.032132 
L 411.481429 163.031802 
L 411.801213 183.691636 
L 411.86517 182.691967 
L 412.184954 163.698248 
L 412.248911 165.03114 
L 412.568695 179.85957 
L 412.632652 179.193124 
L 412.952436 167.363702 
L 413.016392 167.530314 
L 413.208263 174.528 
L 413.336176 177.193785 
L 413.400133 176.69395 
L 413.719917 169.862876 
L 413.847831 172.528661 
L 414.039701 176.194116 
L 414.167615 173.861554 
L 414.359485 168.696595 
L 414.423442 169.029818 
L 414.679269 179.193124 
L 414.743226 179.026512 
L 414.935096 168.529983 
L 415.06301 164.364694 
L 415.190924 170.196099 
L 415.382794 182.691967 
L 415.446751 182.358744 
L 415.638621 167.696926 
L 415.766535 162.032132 
L 415.894448 169.029818 
L 416.086319 183.858248 
L 416.150276 183.525025 
L 416.47006 162.032132 
L 416.534016 164.031471 
L 416.789844 182.525355 
L 416.8538 182.358744 
L 417.045671 169.363041 
L 417.173584 163.86486 
L 417.237541 165.03114 
L 417.557325 181.025851 
L 417.621282 179.85957 
L 417.941066 165.364364 
L 418.068979 170.029488 
L 418.324807 180.526017 
L 418.45272 174.694612 
L 418.644591 165.364364 
L 418.708547 166.03081 
L 419.028331 179.692959 
L 419.092288 178.360066 
L 419.348115 166.697256 
L 419.412072 166.863868 
L 419.731856 178.026843 
L 419.795813 177.027174 
L 420.115597 169.029818 
L 420.243511 171.695603 
L 420.499338 175.860893 
L 420.755165 172.195438 
L 420.947035 170.029488 
L 421.074949 171.528992 
L 421.330776 176.860562 
L 421.394733 176.360727 
L 421.714517 167.696926 
L 421.778474 168.863207 
L 422.034301 177.860231 
L 422.098258 177.193785 
L 422.418042 169.363041 
L 422.737826 175.194446 
L 422.801783 174.694612 
L 422.993653 171.695603 
L 423.05761 172.028826 
L 423.313437 174.194777 
L 423.569264 169.862876 
L 423.633221 170.529322 
L 423.889048 177.360397 
L 423.953005 177.027174 
L 424.272789 167.363702 
L 424.336746 168.863207 
L 424.592573 178.193455 
L 424.65653 177.860231 
L 424.976314 167.530314 
L 425.04027 168.529983 
L 425.360054 177.193785 
L 425.743795 170.029488 
L 425.807752 170.862545 
L 426.063579 174.694612 
L 426.127536 174.694612 
L 426.44732 172.695273 
L 426.511277 172.695273 
L 426.767104 171.029157 
L 426.831061 171.36238 
L 426.958974 173.361719 
L 427.150845 176.860562 
L 427.214802 176.360727 
L 427.406672 169.19643 
L 427.534586 166.03081 
L 427.662499 170.529322 
L 427.918326 181.858909 
L 428.04624 173.861554 
L 428.23811 161.865521 
L 428.302067 163.031802 
L 428.621851 184.691306 
L 428.749765 176.69395 
L 428.941635 160.69924 
L 429.005592 161.032463 
L 429.325376 184.857917 
L 429.389333 183.691636 
L 429.709117 161.365686 
L 429.773073 163.198413 
L 430.092857 183.358413 
L 430.220771 176.69395 
L 430.476598 163.86486 
L 430.668469 174.028165 
L 430.860339 181.192463 
L 430.988253 176.194116 
L 431.24408 164.864529 
L 431.371993 168.863207 
L 431.627821 180.359405 
L 431.691777 180.026182 
L 431.819691 174.528 
L 432.075518 163.86486 
L 432.203432 169.363041 
L 432.459259 184.191471 
L 432.587173 177.527008 
L 432.843 159.532959 
L 432.970913 168.863207 
L 433.162784 187.523702 
L 433.226741 187.357091 
L 433.354654 176.027504 
L 433.546525 156.367339 
L 433.610481 157.200397 
L 433.930265 191.355769 
L 433.994222 188.689983 
L 434.314006 154.034777 
L 434.44192 168.529983 
L 434.63379 192.188826 
L 434.697747 190.356099 
L 435.017531 153.534942 
L 435.081488 157.700231 
L 435.337315 190.855934 
L 435.401272 190.356099 
L 435.721056 156.200727 
L 435.785012 158.533289 
L 436.104796 186.524033 
L 436.23271 178.026843 
L 436.488537 162.86519 
L 436.616451 168.529983 
L 436.872278 180.026182 
L 436.936235 180.026182 
L 437.064148 175.860893 
L 437.319976 165.03114 
L 437.383932 165.197752 
L 437.511846 170.029488 
L 437.767673 183.358413 
L 437.895587 178.026843 
L 438.151414 160.366017 
L 438.279328 166.863868 
L 438.535155 186.690645 
L 438.663068 179.359736 
L 438.918896 159.033124 
L 439.046809 165.697587 
L 439.302636 187.357091 
L 439.366593 186.357421 
L 439.558464 166.863868 
L 439.686377 156.867174 
L 439.750334 157.53362 
L 439.942204 178.859901 
L 440.070118 189.856264 
L 440.134075 189.023207 
L 440.325945 167.530314 
L 440.517816 155.201058 
L 440.645729 168.19676 
L 440.901556 191.355769 
L 441.02947 178.193455 
L 441.285297 154.201388 
L 441.413211 166.697256 
L 441.669038 191.52238 
L 441.796951 180.526017 
L 442.052779 153.534942 
L 442.180692 164.198083 
L 442.436519 192.022215 
L 442.564433 181.025851 
L 442.82026 154.368 
L 442.948174 165.03114 
L 443.204001 189.856264 
L 443.331915 180.192793 
L 443.587742 157.700231 
L 443.715655 165.697587 
L 443.971483 186.19081 
L 444.035439 184.691306 
L 444.355223 160.532628 
L 444.41918 160.865851 
L 444.611051 175.860893 
L 444.802921 185.857587 
L 444.930835 177.527008 
L 445.186662 159.532959 
L 445.314575 167.530314 
L 445.570403 186.857256 
L 445.698316 179.692959 
L 445.954143 158.366678 
L 446.0181 159.866182 
L 446.337884 188.023537 
L 446.401841 186.524033 
L 446.721625 157.700231 
L 446.785582 158.366678 
L 446.977452 178.193455 
L 447.105366 189.189818 
L 447.169323 188.689983 
L 447.361193 167.696926 
L 447.489107 156.034116 
L 447.553063 156.367339 
L 447.744934 178.026843 
L 447.872847 189.35643 
L 447.936804 188.523372 
L 448.256588 158.033455 
L 448.384502 162.531967 
L 448.640329 185.857587 
L 448.704286 185.690975 
L 448.896156 170.196099 
L 449.088026 162.032132 
L 449.279897 174.361388 
L 449.471767 181.525686 
L 449.599681 176.860562 
L 449.855508 166.197421 
L 449.919465 166.197421 
L 450.303206 178.693289 
L 450.367162 177.69362 
L 450.686946 167.696926 
L 450.750903 167.863537 
L 450.942774 174.028165 
L 451.134644 177.860231 
L 451.518385 168.696595 
L 451.838169 176.194116 
L 451.902126 175.361058 
L 452.157953 170.862545 
L 452.41378 175.027835 
L 452.477737 174.694612 
L 452.733564 169.696264 
L 452.797521 170.029488 
L 453.053348 178.526678 
L 453.117305 178.026843 
L 453.437089 164.864529 
L 453.501046 167.030479 
L 453.756873 182.858579 
L 453.820829 181.858909 
L 454.140613 162.198744 
L 454.20457 164.198083 
L 454.524354 183.858248 
L 454.652268 175.527669 
L 454.844138 162.365355 
L 454.908095 163.031802 
L 455.227879 182.358744 
L 455.291836 180.692628 
L 455.61162 165.530975 
L 455.931404 178.360066 
L 455.995361 176.860562 
L 456.251188 169.19643 
L 456.379101 173.028496 
L 456.507015 177.027174 
L 456.570972 176.527339 
L 456.826799 166.863868 
L 456.890756 167.363702 
L 457.21054 181.359074 
L 457.274497 179.193124 
L 457.530324 162.032132 
L 457.594281 163.031802 
L 457.914065 185.524364 
L 457.978021 183.525025 
L 458.297805 159.199736 
L 458.361762 162.198744 
L 458.681546 186.524033 
L 458.873417 169.696264 
L 459.00133 160.199405 
L 459.065287 160.366017 
L 459.385071 184.524694 
L 459.512985 180.85924 
L 459.768812 163.531636 
L 459.832768 163.698248 
L 460.216509 179.359736 
L 460.280466 178.360066 
L 460.664207 167.530314 
L 460.728164 167.696926 
L 460.920034 173.028496 
L 461.175861 179.359736 
L 461.303775 175.527669 
L 461.559602 163.698248 
L 461.623559 164.697917 
L 461.943343 184.191471 
L 462.0073 183.02519 
L 462.19917 167.530314 
L 462.327084 160.366017 
L 462.39104 161.365686 
L 462.710824 186.024198 
L 462.774781 184.691306 
L 463.094565 160.366017 
L 463.158522 161.865521 
L 463.478306 184.857917 
L 463.542263 183.191802 
L 463.862047 162.032132 
L 463.98996 169.19643 
L 464.181831 182.025521 
L 464.245788 181.692298 
L 464.565572 165.697587 
L 464.629528 167.030479 
L 464.949312 178.026843 
L 465.269096 168.529983 
L 465.333053 169.19643 
L 465.58888 176.69395 
L 465.652837 176.360727 
L 465.972621 169.862876 
L 466.036578 170.196099 
L 466.420319 176.027504 
L 466.804059 169.529653 
L 466.868016 170.362711 
L 467.1878 176.860562 
L 467.251757 176.360727 
L 467.571541 168.363372 
L 467.699455 171.195769 
L 467.955282 177.027174 
L 468.275066 170.196099 
L 468.339023 170.362711 
L 468.78672 175.027835 
L 468.914634 175.527669 
L 469.042547 173.694942 
L 469.298375 167.530314 
L 469.426288 171.029157 
L 469.682115 180.526017 
L 469.810029 174.694612 
L 470.001899 163.531636 
L 470.065856 163.698248 
L 470.38564 183.691636 
L 470.449597 182.691967 
L 470.769381 161.865521 
L 470.833338 163.365025 
L 471.153122 184.02486 
L 471.217079 182.192132 
L 471.536862 161.865521 
L 471.664776 168.363372 
L 471.920603 183.525025 
L 472.048517 177.193785 
L 472.304344 162.198744 
L 472.432258 169.029818 
L 472.688085 183.358413 
L 472.815998 176.360727 
L 473.071826 162.531967 
L 473.199739 170.029488 
L 473.39161 183.358413 
L 473.455566 183.191802 
L 473.77535 162.531967 
L 473.839307 163.031802 
L 474.159091 183.358413 
L 474.223048 182.691967 
L 474.542832 162.698579 
L 474.606789 163.531636 
L 474.926573 182.691967 
L 474.99053 181.858909 
L 475.310314 163.698248 
L 475.438227 166.364033 
L 475.758011 182.025521 
L 475.885925 175.361058 
L 476.077795 163.365025 
L 476.141752 163.531636 
L 476.269666 170.196099 
L 476.525493 182.691967 
L 476.653406 175.194446 
L 476.845277 163.031802 
L 476.909234 163.531636 
L 477.229018 182.525355 
L 477.292974 181.192463 
L 477.612758 164.697917 
L 477.676715 166.197421 
L 477.996499 179.359736 
L 478.188369 172.36205 
L 478.38024 167.863537 
L 478.508153 170.196099 
L 478.827937 177.027174 
L 478.891894 176.69395 
L 479.083765 171.029157 
L 479.211678 167.530314 
L 479.275635 167.696926 
L 479.467505 175.361058 
L 479.595419 179.359736 
L 479.659376 178.693289 
L 479.97916 166.03081 
L 480.043117 166.697256 
L 480.362901 180.192793 
L 480.426857 178.693289 
L 480.746641 165.530975 
L 480.874555 170.862545 
L 481.066425 180.026182 
L 481.130382 179.85957 
L 481.450166 166.197421 
L 481.514123 166.697256 
L 481.833907 179.526347 
L 481.897864 178.526678 
L 482.217648 166.697256 
L 482.281605 167.863537 
L 482.601389 178.193455 
L 482.921173 168.696595 
L 482.985129 169.029818 
L 483.304913 175.194446 
L 483.36887 174.861223 
L 483.688654 172.36205 
L 483.752611 172.36205 
L 483.944481 171.695603 
L 484.008438 171.36238 
L 484.072395 171.528992 
L 484.200308 173.195107 
L 484.392179 176.527339 
L 484.520092 174.861223 
L 484.77592 167.030479 
L 484.839876 167.363702 
L 485.15966 180.359405 
L 485.223617 180.026182 
L 485.415488 169.029818 
L 485.543401 163.531636 
L 485.607358 164.364694 
L 485.927142 183.358413 
L 485.991099 181.858909 
L 486.310883 162.198744 
L 486.37484 164.364694 
L 486.694624 182.691967 
L 486.822537 176.360727 
L 487.014408 164.364694 
L 487.078364 164.364694 
L 487.398148 179.692959 
L 487.462105 179.193124 
L 487.781889 167.696926 
L 487.845846 168.030149 
L 488.16563 176.527339 
L 488.229587 176.027504 
L 488.485414 170.362711 
L 488.549371 170.695934 
L 488.869155 174.361388 
L 489.124982 172.528661 
L 489.188939 172.528661 
L 489.380809 173.195107 
L 489.636636 172.195438 
L 489.76455 173.195107 
L 489.95642 174.528 
L 490.276204 170.196099 
L 490.404118 172.695273 
L 490.595988 177.527008 
L 490.659945 176.860562 
L 490.979729 166.364033 
L 491.043686 168.030149 
L 491.299513 181.025851 
L 491.36347 180.692628 
L 491.683254 163.698248 
L 491.747211 165.697587 
L 492.066995 181.359074 
L 492.386779 165.364364 
L 492.450735 165.864198 
L 492.770519 179.026512 
L 492.834476 178.193455 
L 493.15426 168.696595 
L 493.218217 169.363041 
L 493.474044 175.027835 
L 493.601958 174.194777 
L 493.793828 172.861884 
L 493.985699 174.194777 
L 494.113612 172.695273 
L 494.305483 169.363041 
L 494.369439 169.862876 
L 494.689223 178.693289 
L 494.75318 177.527008 
L 495.072964 165.03114 
L 495.200878 170.196099 
L 495.456705 182.358744 
L 495.584618 176.360727 
L 495.840446 162.365355 
L 495.968359 168.863207 
L 496.224186 184.524694 
L 496.3521 177.69362 
L 496.607927 160.199405 
L 496.735841 168.030149 
L 496.991668 186.357421 
L 497.119582 177.360397 
L 497.375409 159.532959 
L 497.567279 176.860562 
L 497.695193 186.524033 
L 497.75915 186.024198 
L 497.95102 166.697256 
L 498.078934 158.200066 
L 498.14289 160.032793 
L 498.462674 188.689983 
L 498.590588 175.860893 
L 498.782458 152.701884 
L 498.846415 155.034446 
L 499.166199 198.686678 
L 499.230156 193.355107 
L 499.54994 139.206347 
L 499.677854 167.197091 
L 499.869724 217.180562 
L 499.933681 214.514777 
L 500.125551 148.03676 
L 500.253465 117.880066 
L 500.317422 124.71114 
L 500.637206 235.008 
L 500.701162 225.344529 
L 501.020946 105.050975 
L 501.14886 145.87081 
L 501.404687 244.005025 
L 501.532601 199.019901 
L 501.788428 105.217587 
L 501.916341 145.370975 
L 502.172169 235.507835 
L 502.236125 229.009983 
L 502.619866 110.382545 
L 502.683823 122.711802 
L 503.003607 246.504198 
L 503.067564 240.672793 
L 503.259434 141.372298 
L 503.387348 86.390479 
L 503.451305 87.390149 
L 503.579218 153.201719 
L 503.835045 276.327669 
L 503.962959 198.686678 
L 504.154829 57.566678 
L 504.218786 58.399736 
L 504.410657 212.515438 
L 504.53857 293.155438 
L 504.602527 288.157091 
L 504.794397 132.541884 
L 504.922311 55.234116 
L 504.986268 59.399405 
L 505.178138 210.016264 
L 505.306052 286.157752 
L 505.370009 281.992463 
L 505.561879 140.039405 
L 505.689793 67.563372 
L 505.753749 70.728992 
L 505.94562 200.352793 
L 506.073533 269.99643 
L 506.13749 269.163372 
L 506.329361 149.869488 
L 506.457274 85.224198 
L 506.521231 86.057256 
L 506.713101 193.854942 
L 506.841015 249.669818 
L 506.904972 248.336926 
L 507.096842 154.034777 
L 507.224756 109.049653 
L 507.288713 112.715107 
L 507.608496 221.012628 
L 507.672453 217.180562 
L 507.992237 140.039405 
L 508.056194 143.538248 
L 508.375978 191.355769 
L 508.503892 182.691967 
L 508.759719 167.030479 
L 509.14346 170.196099 
L 509.271373 174.028165 
L 509.5272 182.192132 
L 509.655114 174.528 
L 509.910941 158.699901 
L 510.038855 170.362711 
L 510.230725 191.189157 
L 510.294682 190.189488 
L 510.614466 152.701884 
L 510.678423 155.534281 
L 510.998207 192.688661 
L 511.12612 179.193124 
L 511.381948 154.701223 
L 511.701732 190.522711 
L 511.765688 188.023537 
L 512.085472 157.200397 
L 512.213386 169.363041 
L 512.405256 187.357091 
L 512.469213 186.19081 
L 512.788997 158.200066 
L 512.852954 158.699901 
L 513.172738 190.189488 
L 513.236695 189.189818 
L 513.428565 164.697917 
L 513.556479 151.868826 
L 513.620435 153.201719 
L 513.812306 183.358413 
L 513.940219 198.520066 
L 514.004176 196.520727 
L 514.32396 143.538248 
L 514.387917 146.703868 
L 514.707701 205.017917 
L 514.771658 200.01957 
L 515.091442 141.205686 
L 515.219355 161.532298 
L 515.475183 201.519074 
L 515.603096 181.858909 
L 515.858923 147.370314 
L 515.986837 164.697917 
L 516.242664 197.520397 
L 516.370578 179.85957 
L 516.562448 148.203372 
L 516.626405 148.869818 
L 516.818275 181.525686 
L 516.946189 198.686678 
L 517.010146 197.187174 
L 517.202016 163.031802 
L 517.32993 144.537917 
L 517.393887 145.370975 
L 517.585757 184.691306 
L 517.713671 206.684033 
L 517.777627 205.017917 
L 518.033455 143.205025 
L 518.033455 143.205025 
" clip-path="url(#p5d72faec98)" style="fill: none; stroke: #1f77b4; stroke-width: 1.5; stroke-linecap: square"/>
   </g>
   <g id="patch_3">
    <path d="M 74.88 307.584 
L 74.88 41.472 
" style="fill: none; stroke: #000000; stroke-width: 0.8; stroke-linejoin: miter; stroke-linecap: square"/>
   </g>
   <g id="patch_4">
    <path d="M 539.136 307.584 
L 539.136 41.472 
" style="fill: none; stroke: #000000; stroke-width: 0.8; stroke-linejoin: miter; stroke-linecap: square"/>
   </g>
   <g id="patch_5">
    <path d="M 74.88 307.584 
L 539.136 307.584 
" style="fill: none; stroke: #000000; stroke-width: 0.8; stroke-linejoin: miter; stroke-linecap: square"/>
   </g>
   <g id="patch_6">
    <path d="M 74.88 41.472 
L 539.136 41.472 
" style="fill: none; stroke: #000000; stroke-width: 0.8; stroke-linejoin: miter; stroke-linecap: square"/>
   </g>
   <g id="text_17">
    <!-- Signal in fish-tank, with acoustic foam, one period -->
    <g transform="translate(156.560812 35.472) scale(0.12 -0.12)">
     <defs>
      <path id="DejaVuSans-66" d="M 2375 4863 
L 2375 4384 
L 1825 4384 
Q 1516 4384 1395 4259 
Q 1275 4134 1275 3809 
L 1275 3500 
L 2222 3500 
L 2222 3053 
L 1275 3053 
L 1275 0 
L 697 0 
L 697 3053 
L 147 3053 
L 147 3500 
L 697 3500 
L 697 3744 
Q 697 4328 969 4595 
Q 1241 4863 1831 4863 
L 2375 4863 
z
" transform="scale(0.015625)"/>
      <path id="DejaVuSans-68" d="M 3513 2113 
L 3513 0 
L 2938 0 
L 2938 2094 
Q 2938 2591 2744 2837 
Q 2550 3084 2163 3084 
Q 1697 3084 1428 2787 
Q 1159 2491 1159 1978 
L 1159 0 
L 581 0 
L 581 4863 
L 1159 4863 
L 1159 2956 
Q 1366 3272 1645 3428 
Q 1925 3584 2291 3584 
Q 2894 3584 3203 3211 
Q 3513 2838 3513 2113 
z
" transform="scale(0.015625)"/>
      <path id="DejaVuSans-6b" d="M 581 4863 
L 1159 4863 
L 1159 1991 
L 2875 3500 
L 3609 3500 
L 1753 1863 
L 3688 0 
L 2938 0 
L 1159 1709 
L 1159 0 
L 581 0 
L 581 4863 
z
" transform="scale(0.015625)"/>
      <path id="DejaVuSans-2c" d="M 750 794 
L 1409 794 
L 1409 256 
L 897 -744 
L 494 -744 
L 750 256 
L 750 794 
z
" transform="scale(0.015625)"/>
      <path id="DejaVuSans-77" d="M 269 3500 
L 844 3500 
L 1563 769 
L 2278 3500 
L 2956 3500 
L 3675 769 
L 4391 3500 
L 4966 3500 
L 4050 0 
L 3372 0 
L 2619 2869 
L 1863 0 
L 1184 0 
L 269 3500 
z
" transform="scale(0.015625)"/>
      <path id="DejaVuSans-63" d="M 3122 3366 
L 3122 2828 
Q 2878 2963 2633 3030 
Q 2388 3097 2138 3097 
Q 1578 3097 1268 2742 
Q 959 2388 959 1747 
Q 959 1106 1268 751 
Q 1578 397 2138 397 
Q 2388 397 2633 464 
Q 2878 531 3122 666 
L 3122 134 
Q 2881 22 2623 -34 
Q 2366 -91 2075 -91 
Q 1284 -91 818 406 
Q 353 903 353 1747 
Q 353 2603 823 3093 
Q 1294 3584 2113 3584 
Q 2378 3584 2631 3529 
Q 2884 3475 3122 3366 
z
" transform="scale(0.015625)"/>
      <path id="DejaVuSans-6f" d="M 1959 3097 
Q 1497 3097 1228 2736 
Q 959 2375 959 1747 
Q 959 1119 1226 758 
Q 1494 397 1959 397 
Q 2419 397 2687 759 
Q 2956 1122 2956 1747 
Q 2956 2369 2687 2733 
Q 2419 3097 1959 3097 
z
M 1959 3584 
Q 2709 3584 3137 3096 
Q 3566 2609 3566 1747 
Q 3566 888 3137 398 
Q 2709 -91 1959 -91 
Q 1206 -91 779 398 
Q 353 888 353 1747 
Q 353 2609 779 3096 
Q 1206 3584 1959 3584 
z
" transform="scale(0.015625)"/>
      <path id="DejaVuSans-70" d="M 1159 525 
L 1159 -1331 
L 581 -1331 
L 581 3500 
L 1159 3500 
L 1159 2969 
Q 1341 3281 1617 3432 
Q 1894 3584 2278 3584 
Q 2916 3584 3314 3078 
Q 3713 2572 3713 1747 
Q 3713 922 3314 415 
Q 2916 -91 2278 -91 
Q 1894 -91 1617 61 
Q 1341 213 1159 525 
z
M 3116 1747 
Q 3116 2381 2855 2742 
Q 2594 3103 2138 3103 
Q 1681 3103 1420 2742 
Q 1159 2381 1159 1747 
Q 1159 1113 1420 752 
Q 1681 391 2138 391 
Q 2594 391 2855 752 
Q 3116 1113 3116 1747 
z
" transform="scale(0.015625)"/>
      <path id="DejaVuSans-72" d="M 2631 2963 
Q 2534 3019 2420 3045 
Q 2306 3072 2169 3072 
Q 1681 3072 1420 2755 
Q 1159 2438 1159 1844 
L 1159 0 
L 581 0 
L 581 3500 
L 1159 3500 
L 1159 2956 
Q 1341 3275 1631 3429 
Q 1922 3584 2338 3584 
Q 2397 3584 2469 3576 
Q 2541 3569 2628 3553 
L 2631 2963 
z
" transform="scale(0.015625)"/>
      <path id="DejaVuSans-64" d="M 2906 2969 
L 2906 4863 
L 3481 4863 
L 3481 0 
L 2906 0 
L 2906 525 
Q 2725 213 2448 61 
Q 2172 -91 1784 -91 
Q 1150 -91 751 415 
Q 353 922 353 1747 
Q 353 2572 751 3078 
Q 1150 3584 1784 3584 
Q 2172 3584 2448 3432 
Q 2725 3281 2906 2969 
z
M 947 1747 
Q 947 1113 1208 752 
Q 1469 391 1925 391 
Q 2381 391 2643 752 
Q 2906 1113 2906 1747 
Q 2906 2381 2643 2742 
Q 2381 3103 1925 3103 
Q 1469 3103 1208 2742 
Q 947 2381 947 1747 
z
" transform="scale(0.015625)"/>
     </defs>
     <use xlink:href="#DejaVuSans-53"/>
     <use xlink:href="#DejaVuSans-69" x="63.476562"/>
     <use xlink:href="#DejaVuSans-67" x="91.259766"/>
     <use xlink:href="#DejaVuSans-6e" x="154.736328"/>
     <use xlink:href="#DejaVuSans-61" x="218.115234"/>
     <use xlink:href="#DejaVuSans-6c" x="279.394531"/>
     <use xlink:href="#DejaVuSans-20" x="307.177734"/>
     <use xlink:href="#DejaVuSans-69" x="338.964844"/>
     <use xlink:href="#DejaVuSans-6e" x="366.748047"/>
     <use xlink:href="#DejaVuSans-20" x="430.126953"/>
     <use xlink:href="#DejaVuSans-66" x="461.914062"/>
     <use xlink:href="#DejaVuSans-69" x="497.119141"/>
     <use xlink:href="#DejaVuSans-73" x="524.902344"/>
     <use xlink:href="#DejaVuSans-68" x="577.001953"/>
     <use xlink:href="#DejaVuSans-2d" x="640.380859"/>
     <use xlink:href="#DejaVuSans-74" x="676.464844"/>
     <use xlink:href="#DejaVuSans-61" x="715.673828"/>
     <use xlink:href="#DejaVuSans-6e" x="776.953125"/>
     <use xlink:href="#DejaVuSans-6b" x="840.332031"/>
     <use xlink:href="#DejaVuSans-2c" x="898.242188"/>
     <use xlink:href="#DejaVuSans-20" x="930.029297"/>
     <use xlink:href="#DejaVuSans-77" x="961.816406"/>
     <use xlink:href="#DejaVuSans-69" x="1043.603516"/>
     <use xlink:href="#DejaVuSans-74" x="1071.386719"/>
     <use xlink:href="#DejaVuSans-68" x="1110.595703"/>
     <use xlink:href="#DejaVuSans-20" x="1173.974609"/>
     <use xlink:href="#DejaVuSans-61" x="1205.761719"/>
     <use xlink:href="#DejaVuSans-63" x="1267.041016"/>
     <use xlink:href="#DejaVuSans-6f" x="1322.021484"/>
     <use xlink:href="#DejaVuSans-75" x="1383.203125"/>
     <use xlink:href="#DejaVuSans-73" x="1446.582031"/>
     <use xlink:href="#DejaVuSans-74" x="1498.681641"/>
     <use xlink:href="#DejaVuSans-69" x="1537.890625"/>
     <use xlink:href="#DejaVuSans-63" x="1565.673828"/>
     <use xlink:href="#DejaVuSans-20" x="1620.654297"/>
     <use xlink:href="#DejaVuSans-66" x="1652.441406"/>
     <use xlink:href="#DejaVuSans-6f" x="1687.646484"/>
     <use xlink:href="#DejaVuSans-61" x="1748.828125"/>
     <use xlink:href="#DejaVuSans-6d" x="1810.107422"/>
     <use xlink:href="#DejaVuSans-2c" x="1907.519531"/>
     <use xlink:href="#DejaVuSans-20" x="1939.306641"/>
     <use xlink:href="#DejaVuSans-6f" x="1971.09375"/>
     <use xlink:href="#DejaVuSans-6e" x="2032.275391"/>
     <use xlink:href="#DejaVuSans-65" x="2095.654297"/>
     <use xlink:href="#DejaVuSans-20" x="2157.177734"/>
     <use xlink:href="#DejaVuSans-70" x="2188.964844"/>
     <use xlink:href="#DejaVuSans-65" x="2252.441406"/>
     <use xlink:href="#DejaVuSans-72" x="2313.964844"/>
     <use xlink:href="#DejaVuSans-69" x="2355.078125"/>
     <use xlink:href="#DejaVuSans-6f" x="2382.861328"/>
     <use xlink:href="#DejaVuSans-64" x="2444.042969"/>
    </g>
   </g>
  </g>
 </g>
 <defs>
  <clipPath id="p5d72faec98">
   <rect x="74.88" y="41.472" width="464.256" height="266.112"/>
  </clipPath>
 </defs>
</svg>
